<svg version="1.1" id="target" xmlns="http://www.w3.org/2000/svg" xmlns:xlink="http://www.w3.org/1999/xlink" x="0px" y="0px" width="491" height="413" viewBox="0 0 491 413" enable-background="new 0 0 491 413" xml:space="preserve">
        
        
    <g class="bowlcut-262"><path d="M55.57 336.11L55.57 336.11L56.11 336.41L56.63 336.72L57.14 337.03L57.64 337.34L58.12 337.66L58.59 337.97L59.04 338.29L59.48 338.61L59.91 338.93L60.31 339.24L60.71 339.56L61.09 339.88L61.45 340.19L61.79 340.51L62.12 340.82L62.44 341.13L62.74 341.44L63.02 341.75L63.32 342.08L63.71 342.47L64.10 342.87L64.48 343.27L64.85 343.68L65.22 344.09L65.58 344.50L65.93 344.91L66.27 345.33L66.61 345.75L66.93 346.17L67.26 346.60L67.57 347.03L67.88 347.46L68.17 347.89L68.47 348.32L68.75 348.76L69.03 349.20L69.30 349.64L69.56 350.09L69.81 350.54L70.10 351.01L70.41 351.50L70.70 352.00L70.99 352.49L71.27 353.00L71.55 353.50L71.82 354.01L72.09 354.52L72.35 355.04L72.60 355.56L72.85 356.08L73.09 356.61L73.33 357.14L73.55 357.68L73.76 358.23L73.97 358.77L74.17 359.33L74.36 359.89L74.55 360.45L74.73 361.02L74.90 361.59L75.07 362.17L75.23 362.75L75.39 363.34L75.53 363.93L75.67 364.54L75.80 365.14L75.92 365.76L76.04 366.38L76.15 367.00L76.26 367.64L76.36 368.28L76.46 368.92L76.55 369.57L76.55 369.57L76.76 371.19L77.16 374.26L77.63 378.45L78.09 383.16L78.54 387.80L78.94 391.90L79.27 395.16L79.52 397.51L79.68 399.03L79.78 399.92L79.83 400.38L79.85 400.59L79.86 400.67L79.86 400.70L79.86 400.70L79.86 400.70L79.86 400.70L79.86 400.70L79.86 400.70L79.47 400.82L78.68 401.05L77.52 401.39L76.03 401.83L74.23 402.35L72.19 402.95L69.95 403.61L67.56 404.31L65.09 405.03L62.60 405.76L60.13 406.48L57.73 407.18L55.44 407.85L53.30 408.48L51.33 409.06L49.54 409.58L47.94 410.05L46.54 410.46L45.32 410.81L44.29 411.12L43.42 411.37L42.70 411.58L42.11 411.75L41.64 411.89L41.26 412.00L40.97 412.09L40.75 412.15L40.58 412.20L40.45 412.24L40.36 412.27L40.29 412.29L40.25 412.30L40.21 412.31L40.19 412.32L40.17 412.32L40.16 412.32L40.16 412.33L40.15 412.33L40.15 412.33L40.15 412.33L40.15 412.33L40.14 412.33L40.14 412.33L40.14 412.33L40.14 412.33L40.14 412.33L40.14 412.33L40.14 412.33L40.14 412.33L40.14 412.33L40.14 412.33L40.14 412.33L40.14 412.33L40.14 412.33L40.14 412.33L40.14 412.33L40.14 412.33L40.14 412.33L40.14 412.33L40.14 412.33L40.14 412.33L40.14 412.33L40.14 412.33L40.14 412.33L40.14 412.33L40.14 412.33L40.14 412.33L40.14 412.33L40.14 412.33L40.14 412.33L40.14 412.33L40.14 412.33L40.14 412.33L40.14 412.33L40.14 412.33L40.14 412.33L40.14 412.33L40.14 412.33L40.14 412.33L40.14 412.33L40.14 412.33L40.14 412.33L40.14 412.33L40.14 412.33L40.14 412.33L40.14 412.33L40.14 412.33L40.14 412.33L40.14 412.33L40.14 412.33L40.14 412.33L40.14 412.33L40.14 412.33L40.14 412.33L40.14 412.33L40.14 412.33L40.14 412.33L40.14 412.33L40.14 412.33L40.14 412.33L38.21 409.57L34.54 404.34L31.03 396.50L27.86 387.40L25.62 378.24L24.18 370.11L22.64 363.80L21.00 359.98L18.99 358.73L17.85 358.02L17.27 357.67L17.02 357.51L16.93 357.45L16.90 357.43L16.89 357.43L16.89 357.43L16.89 357.43L16.89 357.43L16.89 357.43L15.18 356.36L13.79 354.88L12.85 352.77L11.95 350.72L11.11 348.74L10.32 346.83L9.87 344.89L9.80 342.92L9.77 341.03L9.76 339.22L9.79 337.49L9.84 335.83L9.93 334.25L10.06 332.75L10.22 331.33L10.41 329.99L10.63 328.73L10.87 327.56L11.15 326.46L11.45 325.44L11.45 325.44L11.61 325.03L11.79 324.63L11.97 324.25L12.16 323.88L12.36 323.53L12.55 323.19L12.76 322.86L12.96 322.55L13.17 322.26L13.39 321.97L13.61 321.70L13.83 321.45L14.06 321.21L14.30 320.98L14.54 320.76L14.78 320.56L15.03 320.38L15.28 320.21L15.54 320.05L15.80 319.91L16.07 319.77L16.34 319.66L16.62 319.55L16.90 319.47L17.18 319.39L17.47 319.33L17.76 319.28L18.06 319.24L18.37 319.22L18.68 319.21L18.99 319.21L19.30 319.23L19.63 319.26L19.95 319.30L20.29 319.36L20.65 319.44L21.01 319.53L21.37 319.63L21.73 319.74L22.10 319.87L22.47 320.01L22.85 320.15L23.22 320.31L23.60 320.49L23.98 320.67L24.37 320.86L24.37 320.86L24.74 321.07L25.11 321.28L25.47 321.50L25.83 321.73L26.18 321.96L26.52 322.20L26.86 322.45L27.19 322.71L27.51 322.97L27.83 323.24L28.14 323.51L28.47 323.80L28.80 324.11L29.13 324.42L29.46 324.74L29.78 325.06L30.10 325.39L30.41 325.73L30.72 326.08L31.03 326.44L31.34 326.80L31.64 327.17L31.94 327.54L32.23 327.92L32.52 328.31L32.81 328.71L33.09 329.11L33.37 329.52L33.65 329.94L33.93 330.36L34.20 330.79L34.46 331.22L34.73 331.66L34.99 332.11L35.24 332.56L35.50 333.02L35.75 333.49L35.99 333.96L36.24 334.44L36.47 334.92L36.71 335.41L36.94 335.91L37.17 336.41L37.43 336.93L37.70 337.46L37.96 337.99L38.22 338.53L38.48 339.08L38.73 339.63L38.73 339.63L39.03 339.89L39.03 339.89L39.13 339.47L39.24 339.06L39.34 338.66L39.46 338.28L39.58 337.91L39.71 337.55L39.89 337.22L40.07 336.89L40.25 336.59L40.44 336.29L40.64 336.01L40.84 335.74L41.05 335.48L41.26 335.23L41.47 334.99L41.69 334.77L41.92 334.56L42.15 334.36L42.38 334.18L42.62 334.00L42.87 333.84L43.12 333.69L43.37 333.56L43.63 333.43L43.90 333.32L44.17 333.22L44.44 333.13L44.72 333.05L45.01 332.98L45.30 332.93L45.59 332.89L45.90 332.86L46.28 332.89L46.67 332.93L47.06 332.98L47.45 333.04L47.85 333.11L48.24 333.19L48.64 333.28L49.04 333.38L49.45 333.49L49.85 333.60L50.26 333.73L50.66 333.87L51.07 334.01L51.49 334.17L51.90 334.33L52.31 334.50L52.73 334.68L53.15 334.87L53.57 335.07L53.99 335.27L54.41 335.49L54.83 335.71L55.26 335.94M66.18 371.85L66.18 371.85L65.86 370.71L65.40 369.82L64.91 369.05L64.40 368.40L63.85 367.86L63.85 367.86L63.67 367.72L63.47 367.58L63.26 367.45L63.05 367.32L62.82 367.19L62.58 367.06L62.32 366.94L62.06 366.83L61.79 366.71L61.50 366.60L61.21 366.49L60.90 366.39L60.58 366.29L60.25 366.19L59.91 366.09L59.56 366.00L59.20 365.91L58.83 365.82L58.83 365.82L58.46 365.75L58.11 365.68L57.76 365.62L57.44 365.56L57.12 365.51L56.82 365.47L56.54 365.43L56.26 365.40L56.00 365.38L55.76 365.36L55.53 365.35L55.31 365.35L55.11 365.36L54.92 365.37L54.75 365.39L54.59 365.41L54.45 365.44L54.31 365.48L54.20 365.52L54.10 365.57L54.01 365.63L54.01 365.63L53.82 365.87L53.75 366.20L53.80 366.62L53.98 367.13L54.27 367.72L54.69 368.41L54.69 368.41L55.13 370.73L55.61 373.33L55.61 373.33L55.84 373.38L56.29 373.47L56.95 373.61L57.76 373.78L58.69 373.98L59.70 374.19L60.73 374.40L61.73 374.61L62.67 374.80L63.52 374.98L64.26 375.13L64.89 375.26L65.40 375.36L65.80 375.45L66.10 375.51L66.32 375.55L66.48 375.59L66.59 375.61L66.67 375.62L66.71 375.63L66.74 375.64L66.76 375.64L66.77 375.64L66.77 375.64L66.77 375.64L66.78 375.64L66.78 375.65L66.78 375.65L66.78 375.65L66.78 375.65L66.78 375.65L66.78 375.65L66.78 375.65L66.78 375.65L66.78 375.65L66.78 375.65L66.78 375.65L66.78 375.65L66.78 375.65L66.78 375.65L66.78 375.65L66.78 375.65L66.78 375.65L66.78 375.65L66.78 375.65L66.78 375.65L66.78 375.65L66.78 375.65L66.78 375.65L66.47 373.66M45.04 366.79L45.04 366.79L44.61 365.80L43.91 365.17L43.19 364.59L42.45 364.07L41.68 363.60L41.68 363.60L41.42 363.46L41.15 363.32L40.88 363.19L40.60 363.05L40.31 362.93L40.02 362.81L39.72 362.69L39.41 362.58L39.09 362.47L38.77 362.36L38.45 362.26L38.12 362.16L37.78 362.07L37.43 361.98L37.08 361.90L37.08 361.90L36.73 361.83L36.39 361.76L36.08 361.70L35.78 361.65L35.50 361.61L35.24 361.58L35.01 361.55L34.79 361.53L34.59 361.53L34.41 361.53L34.25 361.54L34.11 361.55L33.99 361.58L33.89 361.61L33.81 361.66L33.75 361.71L33.71 361.77L33.71 361.77L33.71 362.02L33.87 362.35L34.20 362.76L34.69 363.25L35.25 363.92L35.25 363.92L35.90 366.84L36.61 370.01L36.61 370.01L36.84 370.06L37.29 370.15L37.94 370.29L38.73 370.46L39.63 370.64L40.58 370.84L41.53 371.04L42.42 371.22L43.23 371.39L43.94 371.53L44.52 371.66L44.99 371.75L45.35 371.83L45.62 371.88L45.80 371.92L45.93 371.94L46.01 371.96L46.07 371.97L46.10 371.98L46.11 371.98L46.12 371.98L46.13 371.98L46.13 371.98L46.13 371.98L46.13 371.98L46.13 371.98L46.13 371.98L46.13 371.98L46.13 371.98L46.13 371.98L46.13 371.98L46.13 371.98L46.13 371.98L46.13 371.98L46.13 371.98L46.13 371.98L46.13 371.98L46.13 371.98L46.13 371.98L46.13 371.98L46.13 371.98L46.13 371.98L45.58 369.36ZM42.84 323.59L42.84 323.59L42.83 323.58L42.80 323.56L42.76 323.53L42.69 323.49L42.60 323.43L42.49 323.37L42.37 323.29L42.22 323.20L42.05 323.09L41.87 322.98L41.66 322.85L41.44 322.71L41.20 322.56L40.93 322.39L40.65 322.22L40.35 322.03L40.03 321.83L39.69 321.61L39.33 321.39L38.95 321.15L38.55 320.90L38.13 320.64L37.69 320.36L37.23 320.08L36.75 319.78L36.26 319.47L35.74 319.14L35.21 318.81L34.65 318.46L34.08 318.10L33.48 317.73L33.48 317.73L33.16 317.52L32.84 317.31L32.52 317.10L32.20 316.87L31.88 316.65L31.57 316.41L31.26 316.18L30.95 315.93L30.64 315.68L30.33 315.42L30.03 315.16L29.72 314.89L29.42 314.62L29.12 314.34L28.82 314.05L28.53 313.76L28.23 313.46L27.94 313.15L27.64 312.84L27.35 312.52L27.06 312.19L26.77 311.85L26.48 311.51L26.19 311.16L25.91 310.81L25.62 310.44L25.34 310.07L25.06 309.69L24.77 309.31L24.49 308.91L24.21 308.51L23.93 308.10L23.65 307.68L23.37 307.26L23.10 306.82L22.82 306.38L22.54 305.93L22.27 305.47L21.99 305.00L21.72 304.53L21.44 304.04L21.17 303.55L20.89 303.05L20.62 302.54L20.35 302.02L20.07 301.49L19.80 300.95L19.53 300.41L19.25 299.85L18.98 299.28L18.71 298.71L18.44 298.13L18.15 297.53L17.81 296.94L17.47 296.34L17.13 295.73L16.78 295.11L16.43 294.48L16.08 293.84L15.73 293.19L15.73 293.19L15.09 291.98L14.46 290.75L13.84 289.49L13.22 288.20L12.60 286.88L12.00 285.54L11.40 284.17L10.77 282.77L10.05 281.35L9.33 279.91L8.61 278.44L7.90 276.94L7.19 275.43L6.48 273.89L5.77 272.32L5.07 270.73L4.52 269.10L4.15 267.44L3.79 265.74L3.44 264.03L3.11 262.30L2.79 260.54L2.49 258.77L2.24 256.97L2.19 255.13L2.15 253.27L2.14 251.40L2.14 249.50L2.17 247.59L2.22 245.67L2.27 243.72L2.34 241.76L2.43 239.79L2.54 237.80L2.54 237.80L2.69 235.70L2.86 233.66L3.02 231.68L3.20 229.75L3.40 227.89L3.62 226.08L3.87 224.34L4.20 222.66L4.67 221.07L5.16 219.53L5.66 218.06L6.18 216.65L6.72 215.30L7.28 214.02L7.88 212.80L8.51 211.65L9.15 210.56L9.80 209.54L10.47 208.58L11.16 207.69L11.86 206.87L12.54 206.10L13.06 205.39L13.60 204.75L14.17 204.17L14.76 203.66L15.37 203.21L16.01 202.84L16.67 202.53L17.35 202.28L18.05 202.11L18.83 202.00L19.74 201.99L19.74 201.99L20.10 202.01L20.46 202.05L20.82 202.09L21.18 202.14L21.55 202.20L21.92 202.27L22.29 202.35L22.67 202.44L23.05 202.53L23.43 202.63L23.81 202.74L24.20 202.86L24.59 202.99L24.99 203.13L25.38 203.27L25.78 203.42L26.18 203.59L26.59 203.76L27.00 203.93L27.41 204.12L27.82 204.32L28.24 204.52L28.66 204.73L29.08 204.95L29.51 205.18L29.94 205.42L30.37 205.67L30.80 205.92L31.24 206.18L31.68 206.45L32.12 206.73L32.57 207.02L33.02 207.31L33.47 207.62L33.92 207.93L34.38 208.25L34.84 208.58L35.33 208.92L35.82 209.28L36.32 209.64L36.82 210.01L37.32 210.39L37.82 210.77L38.32 211.17L38.83 211.57L39.34 211.98L39.85 212.40L40.37 212.82L40.88 213.26L41.40 213.70L41.92 214.15L42.45 214.61L42.97 215.08L43.50 215.55L44.03 216.03L44.57 216.52L45.10 217.02L45.64 217.53L46.18 218.04L46.72 218.56L47.27 219.09L47.82 219.63L48.37 220.17L48.92 220.72L49.48 221.29L50.03 221.85L50.59 222.43L51.16 223.01L51.72 223.60L52.29 224.20L52.86 224.81L53.43 225.42L54.00 226.04L54.58 226.67L55.16 227.30L55.74 227.95L56.33 228.60L56.91 229.25L57.50 229.92L58.09 230.59L58.69 231.27L59.28 231.96L59.88 232.65L60.48 233.35L61.09 234.06L61.69 234.77L62.30 235.49L62.91 236.22L63.53 236.96L64.14 237.70L64.76 238.45L65.38 239.21L65.38 239.21L66.00 239.96L66.60 240.71L67.21 241.46L67.81 242.21L68.41 242.95L69.00 243.70L69.58 244.44L70.17 245.17L70.75 245.91L71.32 246.65L71.89 247.38L72.45 248.11L73.01 248.83L73.57 249.56L74.12 250.28L74.66 251.00L75.20 251.72L75.74 252.43L76.27 253.15L76.80 253.86L77.33 254.56L77.85 255.27L78.36 255.97L78.87 256.67L79.38 257.37L79.88 258.06L80.37 258.75L80.86 259.44L81.35 260.13L81.84 260.81L82.31 261.49L82.79 262.17L83.26 262.85L83.72 263.52L84.18 264.19L84.64 264.85L85.09 265.52L85.54 266.18L85.98 266.84L86.42 267.49L86.85 268.14L87.28 268.79L87.71 269.44L88.13 270.08L88.54 270.72L88.95 271.35L89.36 271.99L89.76 272.62L90.16 273.24L90.55 273.87L90.94 274.49L91.33 275.10L91.71 275.72L92.08 276.33L92.45 276.94L92.82 277.54L93.20 278.15L93.58 278.76L93.95 279.37L94.33 279.97L94.70 280.58L95.06 281.18L95.42 281.77L95.78 282.37L96.13 282.96L96.48 283.54L96.83 284.13L97.17 284.71L97.51 285.29L97.84 285.86L98.17 286.43L98.49 287.00L98.81 287.57L99.13 288.13L99.44 288.69L99.75 289.25L100.05 289.80L100.35 290.35L100.65 290.90L100.94 291.44L101.23 291.98L101.51 292.52L101.79 293.05L102.06 293.58L102.34 294.11L102.60 294.64L102.87 295.16L103.13 295.68L103.38 296.19L103.63 296.70L103.88 297.21L104.12 297.72L104.36 298.22L104.36 298.22L104.96 299.53L105.56 300.83L106.20 302.14L106.83 303.44L107.42 304.72L107.99 305.98L108.54 307.23L109.06 308.46L109.55 309.67L110.02 310.87L110.47 312.06L110.89 313.23L111.20 314.35L111.45 315.44L111.68 316.52L111.88 317.58L112.05 318.62L112.19 319.65L112.30 320.67L112.39 321.67L112.40 322.63L112.28 323.52L112.13 324.40L111.95 325.26L111.74 326.10L111.49 326.94L111.22 327.75L110.90 328.55L110.51 329.30L110.09 330.03L109.64 330.75L109.16 331.45L108.64 332.15L108.10 332.83L107.49 333.47L107.49 333.47L106.78 334.11L106.07 334.71L105.35 335.29L104.62 335.84L103.88 336.37L103.09 336.81L102.30 337.24L101.50 337.64L100.69 338.01L99.88 338.37L99.06 338.70L98.22 338.98L97.35 339.22L96.49 339.44L95.62 339.64L94.75 339.83L93.88 339.99L93.01 340.14L92.13 340.25L91.22 340.29L90.32 340.32L89.42 340.33L88.53 340.33L87.63 340.31L86.74 340.28L85.86 340.24L84.97 340.19L84.08 340.08L83.15 339.84L82.23 339.60L81.31 339.35L80.40 339.09L79.49 338.83L78.58 338.57L77.68 338.30L77.68 338.30L77.33 338.19L76.98 338.08L76.63 337.97L76.28 337.85L75.93 337.74L75.58 337.63L75.23 337.51L74.89 337.40L74.54 337.28L74.19 337.17L73.84 337.05L73.49 336.93L73.14 336.81L72.78 336.70L72.43 336.60L72.07 336.49L71.71 336.39L71.36 336.28L71.00 336.17L70.64 336.06L70.28 335.95L69.92 335.84L69.57 335.73L69.21 335.62L68.85 335.50L68.49 335.38L68.13 335.27L67.77 335.15L67.41 335.03L67.05 334.91L66.69 334.78L66.32 334.66L65.96 334.54L65.60 334.41L65.24 334.28L64.87 334.15L64.51 334.02L64.15 333.89L63.78 333.76L63.42 333.63L63.05 333.49L62.69 333.35L62.32 333.21L61.95 333.07L61.59 332.93L61.22 332.79L60.85 332.64L60.48 332.50L60.11 332.35L59.74 332.20L59.37 332.05L59.00 331.90L58.63 331.74L58.26 331.58L57.88 331.43L57.51 331.27L57.14 331.10L56.76 330.94L56.39 330.77L56.01 330.61L55.63 330.44L55.26 330.27L54.88 330.09L54.50 329.92L54.12 329.74L53.74 329.56L53.36 329.38L52.98 329.19L52.59 329.00L52.21 328.82L51.82 328.62L51.44 328.43L51.05 328.23L50.66 328.04L50.28 327.83L49.89 327.63L49.50 327.42L49.10 327.22L48.71 327.00L48.32 326.79L47.92 326.57L47.53 326.35L47.13 326.13L46.73 325.91L46.33 325.68L45.93 325.45L45.53 325.21L45.13 324.97L44.72 324.73L44.31 324.49L43.91 324.24L43.50 323.99L43.09 323.74M36.57 256.50L36.57 256.50L36.47 256.46L36.17 256.34L35.67 256.15L34.97 255.88L34.97 255.88L34.21 255.73L33.52 255.88L32.88 256.34L32.31 257.10L31.80 258.17L31.35 259.53L30.95 261.19L30.95 261.19L30.68 262.90L30.51 264.54L30.42 266.12L30.41 267.64L30.49 269.09L30.66 270.48L30.89 271.79L31.21 273.03L31.61 274.21L32.10 275.32L32.68 276.37L32.68 276.37L32.86 276.65L33.05 276.94L33.25 277.23L33.46 277.54L33.69 277.84L33.92 278.16L34.17 278.48L34.43 278.81L34.70 279.14L34.98 279.48L35.27 279.83L35.57 280.18L35.89 280.54L36.21 280.91L36.55 281.28L36.90 281.66L37.25 282.05L37.63 282.44L38.01 282.84L38.40 283.25L38.81 283.66L39.22 284.08L39.65 284.50L40.09 284.93L40.54 285.37L41.00 285.82L41.47 286.27L41.95 286.72L42.45 287.19L42.95 287.66L43.47 288.14L44.00 288.62L44.54 289.12L45.09 289.61L45.66 290.12L46.23 290.63L46.82 291.15L47.42 291.68L48.03 292.21L48.65 292.75L48.65 292.75L49.06 293.11L49.84 293.78L50.88 294.68L52.02 295.67L53.12 296.62L54.06 297.43L54.78 298.05L55.27 298.48L55.57 298.74L55.73 298.88L55.80 298.94L55.83 298.97L55.84 298.98L55.85 298.98L55.85 298.98L55.85 298.98L55.85 298.98L55.85 298.98L56.48 299.52L57.10 300.06L57.71 300.58L58.32 301.09L58.91 301.59L59.49 302.08L60.07 302.56L60.63 303.03L61.18 303.48L61.72 303.92L62.26 304.36L62.78 304.78L63.29 305.19L63.80 305.59L64.29 305.98L64.77 306.35L65.25 306.72L65.71 307.07L66.17 307.42L66.61 307.75L67.05 308.07L67.47 308.39L67.89 308.69L68.29 308.98L68.69 309.25L69.07 309.52L69.45 309.78L69.82 310.02L70.17 310.26L70.52 310.48L70.86 310.70L71.18 310.90L71.50 311.09L71.81 311.27L72.11 311.44L72.40 311.60L72.67 311.75L72.94 311.88L73.20 312.01L73.45 312.13L73.69 312.23L73.69 312.23L74.56 312.54L75.40 312.74L76.22 312.84L77.00 312.81L77.74 312.68L78.44 312.41L79.10 312.03L79.73 311.53L80.33 310.91L80.89 310.18L80.89 310.18L81.44 309.13L81.86 308.08L82.14 307.02L82.31 305.96L82.37 304.92L82.31 303.88L82.14 302.85L81.85 301.83L81.45 300.82L80.94 299.82L80.94 299.82L80.75 299.53L80.55 299.22L80.34 298.92L80.11 298.60L79.87 298.27L79.62 297.93L79.36 297.58L79.08 297.23L78.80 296.86L78.50 296.48L78.19 296.10L77.87 295.70L77.54 295.30L77.19 294.88L76.84 294.46L76.47 294.02L76.09 293.58L75.70 293.13L75.29 292.67L74.87 292.20L74.45 291.72L74.01 291.23L73.56 290.73L73.09 290.22L72.62 289.71L72.13 289.18L71.63 288.65L71.12 288.10L70.59 287.55L70.06 286.99L69.51 286.41L68.95 285.83L68.38 285.24L67.80 284.64L67.21 284.04L66.60 283.42L65.98 282.79L65.35 282.16L64.71 281.51L64.06 280.86L63.39 280.20L63.39 280.20L62.95 279.76L62.10 278.92L60.97 277.80L59.71 276.55L58.48 275.34L57.42 274.28L56.59 273.46L56.00 272.88L55.64 272.52L55.43 272.32L55.33 272.22L55.29 272.18L55.27 272.16L55.27 272.15L55.27 272.15L55.27 272.15L55.27 272.15L55.27 272.15L55.27 272.15L54.59 271.48L53.92 270.83L53.26 270.19L52.62 269.56L51.98 268.94L51.36 268.35L50.75 267.76L50.14 267.19L49.55 266.63L48.97 266.09L48.40 265.56L47.84 265.05L47.30 264.55L46.76 264.06L46.23 263.59L45.72 263.14L45.21 262.70L44.72 262.27L44.24 261.86L43.77 261.46L43.31 261.07L42.86 260.71L42.42 260.35L41.99 260.01L41.57 259.69L41.17 259.38L40.77 259.08L40.39 258.80L40.02 258.53L39.65 258.28L39.31 258.04L38.97 257.82L38.65 257.61L38.34 257.42L38.04 257.24L37.75 257.07L37.48 256.92L37.21 256.79L36.95 256.66L36.71 256.56ZM98.86 35.05L98.86 35.05L99.71 37.60L101.38 42.64L103.86 50.05L107.08 59.62L110.96 71.09L115.41 84.13L120.33 98.41L125.61 113.54L131.11 129.17L136.72 144.93L142.32 160.50L147.80 175.57L153.10 189.96L158.10 203.40L162.72 215.75L166.94 226.92L170.72 236.87L174.05 245.60L176.95 253.14L179.42 259.55L181.50 264.94L183.23 269.39L184.64 273.02L185.78 275.93L186.68 278.23L187.38 280.03L187.92 281.41L188.33 282.45L188.63 283.23L188.86 283.80L189.02 284.22L189.14 284.51L189.22 284.72L189.27 284.86L189.31 284.96L189.34 285.02L189.35 285.06L189.36 285.09L189.37 285.11L189.37 285.12L189.38 285.13L189.38 285.13L189.38 285.13L189.38 285.14L189.38 285.14L189.38 285.14L189.38 285.14L189.38 285.14L189.38 285.14L189.38 285.14L189.38 285.14L189.38 285.14L189.38 285.14L189.38 285.14L189.38 285.14L189.38 285.14L189.38 285.14L189.38 285.14L189.38 285.14L189.38 285.14L189.38 285.14L189.38 285.14L189.38 285.14L189.38 285.14L189.38 285.14L189.38 285.14L189.38 285.14L189.38 285.14L189.38 285.14L189.38 285.14L189.38 285.14L189.38 285.14L189.38 285.14L189.38 285.14L189.38 285.14L189.38 285.14L189.38 285.14L189.38 285.14L189.38 285.14L189.38 285.14L189.38 285.14L189.38 285.14L189.38 285.14L189.38 285.14L189.38 285.14L189.38 285.14L189.38 285.14L189.38 285.14L189.38 285.14L189.38 285.14L189.38 285.14L189.38 285.14L189.38 285.14L189.38 285.14L189.38 285.14L189.38 285.14L189.38 285.14L189.38 285.14L189.38 285.14L189.38 285.14L187.97 286.00L185.35 287.67L181.85 289.72L177.89 291.55L174.02 292.82L170.82 293.68L168.49 294.24L167.01 294.53L166.19 294.64L165.80 294.69L165.64 294.71L165.59 294.72L165.58 294.72L165.58 294.72L165.58 294.72L165.58 294.72L165.04 293.83L163.97 292.07L162.39 289.49L160.36 286.16L157.93 282.20L155.17 277.71L152.14 272.82L148.93 267.67L145.62 262.39L142.29 257.10L139.01 251.93L135.84 246.96L132.83 242.27L130.03 237.92L127.48 233.95L125.18 230.40L123.14 227.28L121.38 224.57L119.86 222.26L118.58 220.31L117.52 218.70L116.66 217.39L115.96 216.34L115.41 215.51L114.98 214.86L114.65 214.36L114.41 213.99L114.22 213.71L114.09 213.51L113.99 213.36L113.92 213.26L113.87 213.19L113.84 213.14L113.82 213.10L113.80 213.08L113.79 213.07L113.79 213.06L113.78 213.05L113.78 213.05L113.78 213.05L113.78 213.05L113.78 213.04L113.78 213.04L113.78 213.04L113.78 213.04L113.78 213.04L113.78 213.04L113.78 213.04L113.78 213.04L113.78 213.04L113.78 213.04L113.78 213.04L113.78 213.04L113.78 213.04L113.78 213.04L113.78 213.04L113.78 213.04L113.78 213.04L113.78 213.04L113.78 213.04L113.78 213.04L113.78 213.04L113.78 213.04L113.78 213.04L113.78 213.04L113.78 213.04L113.78 213.04L113.78 213.04L113.78 213.04L113.78 213.04L113.78 213.04L113.78 213.04L113.78 213.04L113.78 213.04L113.78 213.04L113.78 213.04L113.78 213.04L113.78 213.04L113.78 213.04L113.78 213.04L113.78 213.04L113.78 213.04L113.78 213.04L113.78 213.04L113.78 213.04L113.78 213.04L113.78 213.04L113.78 213.04L113.78 213.04L113.78 213.04L113.78 213.04L113.78 213.04L113.78 213.04L113.78 213.04L113.78 213.04L113.78 213.04L113.78 213.04L114.21 213.94L115.07 215.72L116.33 218.33L117.96 221.69L119.91 225.69L122.13 230.23L124.55 235.16L127.13 240.36L129.78 245.68L132.46 251.01L135.09 256.22L137.64 261.23L140.05 265.94L142.30 270.29L144.36 274.24L146.22 277.76L147.86 280.86L149.28 283.55L150.50 285.85L151.52 287.77L152.38 289.37L153.07 290.67L153.63 291.71L154.07 292.53L154.42 293.17L154.68 293.66L154.88 294.04L155.03 294.31L155.13 294.51L155.21 294.66L155.27 294.76L155.31 294.83L155.33 294.88L155.35 294.91L155.36 294.93L155.37 294.95L155.37 294.96L155.38 294.96L155.38 294.97L155.38 294.97L155.38 294.97L155.38 294.97L155.38 294.97L155.38 294.97L155.38 294.97L155.38 294.97L155.38 294.97L155.38 294.97L155.38 294.97L155.38 294.97L155.38 294.97L155.38 294.97L155.38 294.97L155.38 294.97L155.38 294.97L155.38 294.97L155.38 294.97L155.38 294.97L155.38 294.97L155.38 294.97L155.38 294.97L155.38 294.97L155.38 294.97L155.38 294.97L155.38 294.97L155.38 294.97L155.38 294.97L155.38 294.97L155.38 294.97L155.38 294.97L155.38 294.97L155.38 294.97L155.38 294.97L155.38 294.97L155.38 294.97L155.38 294.97L155.38 294.97L155.38 294.97L155.38 294.97L155.38 294.97L155.38 294.97L155.38 294.97L155.38 294.97L155.38 294.97L155.38 294.97L155.38 294.97L155.38 294.97L155.38 294.97L155.38 294.97L155.38 294.97L155.38 294.97L155.38 294.97L155.38 294.97L155.38 294.97L155.38 294.97L155.38 294.97L153.77 294.79L150.78 294.58L146.92 294.66L143.04 296.47L139.34 298.02L136.25 299.17L133.97 299.94L132.53 300.43L131.74 300.70L131.37 300.83L131.22 300.88L131.17 300.89L131.16 300.90L131.16 300.90L131.16 300.90L131.16 300.90L129.97 299.42L127.63 296.49L124.19 292.22L119.75 286.72L114.43 280.18L108.40 272.79L101.80 264.77L94.82 256.35L87.63 247.74L80.39 239.14L73.25 230.74L66.35 222.69L59.74 215.09L53.57 208.06L47.89 201.66L42.75 195.91L38.18 190.82L34.16 186.39L30.69 182.59L27.74 179.36L25.26 176.67L23.21 174.45L21.54 172.64L20.20 171.20L19.13 170.06L18.31 169.17L17.67 168.49L17.19 167.97L16.83 167.59L16.57 167.31L16.38 167.10L16.24 166.96L16.15 166.86L16.08 166.78L16.04 166.74L16.01 166.71L15.99 166.68L15.97 166.67L15.97 166.66L15.96 166.66L15.96 166.65L15.96 166.65L15.95 166.65L15.95 166.65L15.95 166.65L15.95 166.65L15.95 166.65L15.95 166.65L15.95 166.65L15.95 166.65L15.95 166.65L15.95 166.65L15.95 166.65L15.95 166.65L15.95 166.65L15.95 166.65L15.95 166.65L15.95 166.65L15.95 166.65L15.95 166.65L15.95 166.65L15.95 166.65L15.95 166.65L15.95 166.65L15.95 166.65L15.95 166.65L15.95 166.65L15.95 166.65L15.95 166.65L15.95 166.65L15.95 166.65L15.95 166.65L15.95 166.65L15.95 166.65L15.95 166.65L15.95 166.65L15.95 166.65L15.95 166.65L15.95 166.65L15.95 166.65L15.95 166.65L15.95 166.65L15.95 166.65L15.95 166.65L15.95 166.65L15.95 166.65L15.95 166.65L15.95 166.65L15.95 166.65L15.95 166.65L15.95 166.65L15.95 166.65L15.95 166.65L15.95 166.65L15.95 166.65L15.95 166.65L15.95 166.65L15.95 166.65L15.95 166.65L15.95 166.65L17.01 163.40L18.77 157.39L20.49 149.68L26.01 143.90L29.64 138.28L30.57 133.19L31.16 130.01L31.48 128.34L31.62 127.62L31.67 127.38L31.68 127.32L31.69 127.31L31.69 127.31L32.21 128.03L33.24 129.46L34.77 131.57L36.74 134.29L39.11 137.57L41.81 141.31L44.77 145.43L47.93 149.83L51.20 154.39L54.52 159.01L57.80 163.61L61.00 168.09L64.05 172.37L66.91 176.40L69.55 180.11L71.94 183.49L74.08 186.52L75.97 189.18L77.60 191.49L78.99 193.46L80.16 195.12L81.13 196.49L81.92 197.61L82.55 198.51L83.05 199.23L83.45 199.78L83.75 200.21L83.98 200.54L84.15 200.78L84.27 200.96L84.36 201.08L84.43 201.18L84.47 201.24L84.50 201.28L84.52 201.31L84.54 201.33L84.55 201.35L84.55 201.36L84.56 201.36L84.56 201.37L84.56 201.37L84.56 201.37L84.56 201.37L84.56 201.37L84.56 201.37L84.56 201.37L84.56 201.37L84.56 201.37L84.56 201.37L84.56 201.37L84.56 201.37L84.56 201.37L84.56 201.37L84.56 201.37L84.56 201.37L84.56 201.37L84.56 201.37L84.56 201.37L84.56 201.37L84.56 201.37L84.56 201.37L84.56 201.37L84.56 201.37L84.56 201.37L84.56 201.37L84.56 201.37L84.56 201.37L84.56 201.37L84.56 201.37L84.56 201.37L84.56 201.37L84.56 201.37L84.56 201.37L84.56 201.37L84.56 201.37L84.56 201.37L84.56 201.37L84.56 201.37L84.56 201.37L84.56 201.37L84.56 201.37L84.56 201.37L84.56 201.37L84.56 201.37L84.56 201.37L84.56 201.37L84.56 201.37L84.56 201.37L84.56 201.37L84.56 201.37L84.56 201.37L84.56 201.37L84.56 201.37L84.56 201.37L84.56 201.37L84.56 201.37L84.56 201.37L84.56 201.37L84.56 201.37L84.56 201.37L84.56 201.37L84.08 200.51L83.11 198.80L81.69 196.28L79.86 193.01L77.65 189.07L75.13 184.57L72.36 179.62L69.46 174.37L66.45 168.91L63.39 163.34L60.37 157.80L57.42 152.39L54.61 147.20L51.96 142.30L49.53 137.77L47.31 133.64L45.33 129.94L43.59 126.68L42.08 123.84L40.80 121.42L39.72 119.38L38.82 117.69L38.09 116.31L37.50 115.19L37.03 114.31L36.67 113.62L36.39 113.10L36.18 112.70L36.02 112.40L35.91 112.18L35.82 112.02L35.76 111.90L35.72 111.83L35.69 111.77L35.67 111.73L35.66 111.71L35.65 111.69L35.65 111.68L35.64 111.67L35.64 111.67L35.64 111.67L35.64 111.67L35.64 111.67L35.64 111.67L35.64 111.66L35.64 111.66L35.64 111.66L35.64 111.66L35.64 111.66L35.64 111.66L35.64 111.66L35.64 111.66L35.64 111.66L35.64 111.66L35.64 111.66L35.64 111.66L35.64 111.66L35.64 111.66L35.64 111.66L35.64 111.66L35.64 111.66L35.64 111.66L35.64 111.66L35.64 111.66L35.64 111.66L35.64 111.66L35.64 111.66L35.64 111.66L35.64 111.66L35.64 111.66L35.64 111.66L35.64 111.66L35.64 111.66L35.64 111.66L35.64 111.66L35.64 111.66L35.64 111.66L35.64 111.66L35.64 111.66L35.64 111.66L35.64 111.66L35.64 111.66L35.64 111.66L35.64 111.66L35.64 111.66L35.64 111.66L35.64 111.66L35.64 111.66L35.64 111.66L35.64 111.66L35.64 111.66L35.64 111.66L35.64 111.66L35.64 111.66L35.64 111.66L35.64 111.66L35.64 111.66L35.64 111.66L35.64 111.66L35.64 111.66L36.69 108.44L39.37 102.81L43.20 95.95L47.69 89.32L51.49 83.68L54.30 79.69L56.22 77.44L57.18 76.32L57.56 75.86L57.68 75.72L57.71 75.69L57.71 75.69L57.71 75.69L58.29 76.62L59.44 78.46L61.12 81.17L63.30 84.68L65.91 88.91L68.88 93.74L72.13 99.05L75.58 104.72L79.14 110.61L82.74 116.59L86.30 122.53L89.76 128.32L93.05 133.85L96.13 139.06L98.96 143.87L101.52 148.24L103.81 152.15L105.81 155.59L107.54 158.58L109.02 161.13L110.26 163.27L111.29 165.05L112.12 166.50L112.79 167.66L113.32 168.58L113.74 169.30L114.06 169.86L114.30 170.28L114.48 170.59L114.61 170.82L114.70 170.99L114.77 171.10L114.82 171.19L114.85 171.25L114.87 171.28L114.89 171.31L114.90 171.33L114.91 171.34L114.91 171.35L114.91 171.35L114.91 171.35L114.91 171.35L114.92 171.36L114.92 171.36L114.92 171.36L114.92 171.36L114.92 171.36L114.92 171.36L114.92 171.36L114.92 171.36L114.92 171.36L114.92 171.36L114.92 171.36L114.92 171.36L114.92 171.36L114.92 171.36L114.92 171.36L114.92 171.36L114.92 171.36L114.92 171.36L114.92 171.36L114.92 171.36L114.92 171.36L114.92 171.36L114.92 171.36L114.92 171.36L114.92 171.36L114.92 171.36L114.92 171.36L114.92 171.36L114.92 171.36L114.92 171.36L114.92 171.36L114.92 171.36L114.92 171.36L114.92 171.36L114.92 171.36L114.92 171.36L114.92 171.36L114.92 171.36L114.92 171.36L114.92 171.36L114.92 171.36L114.92 171.36L114.92 171.36L114.92 171.36L114.92 171.36L114.92 171.36L114.92 171.36L114.92 171.36L114.92 171.36L114.92 171.36L114.92 171.36L114.92 171.36L114.92 171.36L114.92 171.36L114.92 171.36L114.92 171.36L114.92 171.36L114.92 171.36L114.92 171.36L114.44 170.30L113.50 168.21L112.12 165.14L110.33 161.16L108.19 156.37L105.75 150.91L103.08 144.91L100.24 138.53L97.32 131.91L94.36 125.20L91.43 118.55L88.60 112.08L85.90 105.90L83.38 100.10L81.06 94.75L78.95 89.89L77.08 85.55L75.43 81.73L74.01 78.42L72.80 75.59L71.78 73.22L70.93 71.26L70.25 69.65L69.70 68.36L69.26 67.34L68.92 66.54L68.66 65.93L68.46 65.47L68.31 65.12L68.20 64.87L68.13 64.69L68.07 64.56L68.03 64.46L68.00 64.40L67.99 64.36L67.97 64.33L67.96 64.31L67.96 64.30L67.96 64.29L67.95 64.28L67.95 64.28L67.95 64.28L67.95 64.28L67.95 64.28L67.95 64.28L67.95 64.28L67.95 64.28L67.95 64.28L67.95 64.28L67.95 64.28L67.95 64.28L67.95 64.28L67.95 64.28L67.95 64.28L67.95 64.28L67.95 64.28L67.95 64.28L67.95 64.28L67.95 64.28L67.95 64.28L67.95 64.28L67.95 64.28L67.95 64.28L67.95 64.28L67.95 64.28L67.95 64.28L67.95 64.28L67.95 64.28L67.95 64.28L67.95 64.28L67.95 64.28L67.95 64.28L67.95 64.28L67.95 64.28L67.95 64.28L67.95 64.28L67.95 64.28L67.95 64.28L67.95 64.28L67.95 64.28L67.95 64.28L67.95 64.28L67.95 64.28L67.95 64.28L67.95 64.28L67.95 64.28L67.95 64.28L67.95 64.28L67.95 64.28L67.95 64.28L67.95 64.28L67.95 64.28L67.95 64.28L67.95 64.28L67.95 64.28L67.95 64.28L67.95 64.28L67.95 64.28L67.95 64.28L67.95 64.28L70.27 61.76L74.53 57.12L80.07 51.45L85.78 45.80L90.68 41.08L94.52 38.06L96.96 36.37L98.18 35.52L98.67 35.18L98.82 35.08L98.85 35.05L98.86 35.05ZM241.32 281.68L241.32 281.68L239.76 281.21L236.67 281.15L232.32 281.69L227.24 282.18L221.91 281.61L216.88 280.78L212.50 279.79L208.98 278.69L206.29 278.12L204.35 278.31L203.08 278.44L202.31 278.51L201.89 278.55L201.67 278.59L201.58 278.63L201.54 278.65L201.53 278.65L201.52 278.66L201.52 278.66L201.52 278.66L201.52 278.66L201.52 278.66L201.52 278.66L201.52 278.66L201.52 278.66L200.61 276.14L198.80 271.17L196.13 263.85L192.69 254.39L188.55 243.04L183.84 230.09L178.67 215.90L173.17 200.81L167.49 185.20L161.74 169.41L156.05 153.78L150.52 138.61L145.25 124.14L140.32 110.59L135.77 98.10L131.64 86.77L127.96 76.67L124.73 67.79L121.93 60.10L119.54 53.54L117.54 48.04L115.88 43.48L114.52 39.76L113.44 36.78L112.58 34.41L111.90 32.57L111.39 31.15L111.00 30.08L110.71 29.28L110.49 28.69L110.34 28.27L110.23 27.97L110.15 27.75L110.10 27.61L110.06 27.51L110.04 27.44L110.02 27.40L110.01 27.37L110.00 27.35L110.00 27.34L110.00 27.33L110.00 27.33L109.99 27.33L109.99 27.33L109.99 27.32L109.99 27.32L109.99 27.32L109.99 27.32L109.99 27.32L109.99 27.32L109.99 27.32L109.99 27.32L109.99 27.32L109.99 27.32L109.99 27.32L109.99 27.32L109.99 27.32L109.99 27.32L109.99 27.32L109.99 27.32L109.99 27.32L109.99 27.32L109.99 27.32L109.99 27.32L109.99 27.32L109.99 27.32L109.99 27.32L109.99 27.32L109.99 27.32L109.99 27.32L109.99 27.32L109.99 27.32L109.99 27.32L109.99 27.32L109.99 27.32L109.99 27.32L109.99 27.32L109.99 27.32L109.99 27.32L109.99 27.32L109.99 27.32L109.99 27.32L109.99 27.32L109.99 27.32L109.99 27.32L109.99 27.32L109.99 27.32L109.99 27.32L109.99 27.32L109.99 27.32L109.99 27.32L109.99 27.32L109.99 27.32L109.99 27.32L109.99 27.32L109.99 27.32L109.99 27.32L109.99 27.32L109.99 27.32L109.99 27.32L113.10 26.04L118.93 23.83L126.84 21.91L134.74 18.96L141.26 15.01L146.50 12.37L150.01 10.59L152.22 10.31L153.33 10.37L153.79 10.39L153.93 10.40L153.96 10.40L153.97 10.40L153.97 10.40L153.97 10.40L154.49 12.41L155.52 16.39L157.04 22.24L159.00 29.81L161.35 38.90L164.03 49.25L166.97 60.61L170.09 72.68L173.32 85.18L176.59 97.81L179.83 110.31L182.97 122.46L185.97 134.03L188.77 144.88L191.36 154.87L193.70 163.93L195.80 172.02L197.64 179.12L199.23 185.27L200.59 190.52L201.73 194.92L202.67 198.57L203.44 201.54L204.06 203.93L204.55 205.82L204.93 207.30L205.22 208.43L205.44 209.29L205.61 209.93L205.73 210.40L205.82 210.74L205.88 210.98L205.93 211.15L205.96 211.27L205.98 211.35L205.99 211.40L206.00 211.44L206.01 211.46L206.01 211.47L206.01 211.48L206.01 211.49L206.01 211.49L206.01 211.49L206.01 211.50L206.01 211.50L206.01 211.50L206.01 211.50L206.01 211.50L206.01 211.50L206.01 211.50L206.01 211.50L206.01 211.50L206.01 211.50L206.01 211.50L206.01 211.50L206.01 211.50L206.01 211.50L206.01 211.50L206.01 211.50L206.01 211.50L206.01 211.50L206.01 211.50L206.01 211.50L206.01 211.50L206.01 211.50L206.01 211.50L206.01 211.50L206.01 211.50L206.01 211.50L206.01 211.50L206.01 211.50L206.01 211.50L206.01 211.50L206.01 211.50L206.01 211.50L206.01 211.50L206.01 211.50L206.01 211.50L206.01 211.50L206.01 211.50L206.01 211.50L206.01 211.50L206.01 211.50L206.01 211.50L206.01 211.50L206.01 211.50L206.01 211.50L206.01 211.50L206.01 211.50L206.01 211.50L206.01 211.50L206.01 211.50L206.01 211.50L206.01 211.50L206.01 211.50L206.01 211.50L206.01 211.50L206.01 211.50L206.01 211.50L206.01 211.50L208.12 211.66L211.95 211.88L216.65 211.93L221.25 211.45L224.95 211.05L227.39 211.20L228.75 211.29L229.34 211.33L229.54 211.34L229.59 211.34L229.60 211.34L229.60 211.34L229.78 212.50L230.15 214.79L230.68 218.10L231.36 222.30L232.16 227.20L233.04 232.60L233.97 238.26L234.92 243.99L235.86 249.58L236.74 254.87L237.56 259.73L238.30 264.07L238.94 267.84L239.49 271.03L239.94 273.66L240.30 275.77L240.59 277.42L240.80 278.68L240.97 279.62L241.08 280.30L241.17 280.77L241.22 281.10L241.26 281.32L241.29 281.46L241.30 281.55L241.31 281.60L241.32 281.64L241.32 281.66L241.32 281.67L241.32 281.67L241.32 281.68L241.32 281.68L241.32 281.68L241.32 281.68L241.32 281.68L241.32 281.68L241.32 281.68L241.32 281.68L241.32 281.68L241.32 281.68L241.32 281.68L241.32 281.68L241.32 281.68L241.32 281.68L241.32 281.68L241.32 281.68L241.32 281.68L241.32 281.68L241.32 281.68L241.32 281.68L241.32 281.68L241.32 281.68L241.32 281.68L241.32 281.68L241.32 281.68L241.32 281.68L241.32 281.68L241.32 281.68L241.32 281.68L241.32 281.68ZM252.53 155.50L252.53 155.50L252.54 155.59L252.56 155.84L252.59 156.26L252.64 156.85L252.70 157.60L252.78 158.53L252.87 159.62L252.98 160.88L253.09 162.31L253.22 163.91L253.37 165.68L253.53 167.61L253.70 169.71L253.89 171.98L253.89 171.98L254.00 173.27L254.12 174.55L254.24 175.83L254.37 177.11L254.50 178.37L254.64 179.64L254.78 180.90L254.94 182.15L255.09 183.40L255.26 184.65L255.42 185.89L255.60 187.12L255.78 188.35L255.96 189.58L256.15 190.80L256.34 192.02L256.54 193.23L256.75 194.43L256.96 195.63L257.17 196.83L257.39 198.02L257.62 199.20L257.85 200.38L258.08 201.56L258.32 202.73L258.57 203.90L258.81 205.06L259.07 206.21L259.07 206.21L259.59 208.43L260.12 210.51L260.67 212.43L261.24 214.19L261.82 215.81L262.42 217.28L262.97 218.60L263.55 219.77L264.14 220.79L264.74 221.66L265.36 222.38L266.00 222.94L266.66 223.36L267.33 223.63L267.33 223.63L268.17 223.77L269.11 223.76L270.17 223.57L271.32 223.27L272.55 222.85L273.87 222.32L275.29 221.65L276.88 220.70L278.57 219.63L280.36 218.44L282.24 217.02L284.20 215.10L284.20 215.10L284.31 216.23L284.52 218.44L284.81 221.66L285.18 225.73L285.60 230.48L286.05 235.71L286.50 241.19L286.95 246.72L287.37 252.11L287.75 257.20L288.09 261.85L288.38 266.00L288.63 269.58L288.83 272.60L288.99 275.07L289.12 277.05L289.22 278.58L289.29 279.74L289.34 280.60L289.38 281.21L289.41 281.64L289.43 281.93L289.44 282.12L289.44 282.25L289.45 282.32L289.45 282.37L289.45 282.40L289.45 282.41L289.46 282.42L289.46 282.42L289.46 282.43L289.46 282.43L289.46 282.43L289.46 282.43L289.46 282.43L289.46 282.43L289.46 282.43L289.46 282.43L289.46 282.43L289.46 282.43L289.46 282.43L289.46 282.43L289.46 282.43L289.46 282.43L289.46 282.43L289.46 282.43L289.46 282.43L289.46 282.43L289.46 282.43L289.46 282.43L289.46 282.43L289.46 282.43L289.46 282.43L289.46 282.43L289.46 282.43L289.46 282.43L289.46 282.43L289.46 282.43L289.46 282.43L289.46 282.43L288.28 284.23L287.10 285.94L285.94 287.56L284.80 289.09L283.67 290.53L282.53 291.74L281.39 292.85L280.27 293.87L279.16 294.82L278.05 295.67L276.96 296.43L275.88 297.11L274.80 297.70L273.72 298.21L272.63 298.55L271.53 298.72L270.44 298.82L270.44 298.82L269.54 298.77L268.65 298.67L267.78 298.47L266.94 298.10L266.12 297.66L265.30 297.17L264.48 296.62L263.68 296.02L262.88 295.36L262.12 294.52L261.38 293.56L260.65 292.55L259.93 291.49L259.21 290.37L258.49 289.20L257.77 287.97L257.06 286.69L256.36 285.36L255.65 283.97L254.95 282.54L254.25 281.06L253.55 279.53L252.85 277.94L252.16 276.31L251.46 274.63L250.76 272.90L250.07 271.11L249.38 269.27L248.70 267.38L248.00 265.44L247.31 263.46L246.62 261.43L245.93 259.35L245.23 257.23L244.54 255.05L244.54 255.05L244.26 254.19L243.99 253.31L243.72 252.43L243.44 251.53L243.16 250.64L242.89 249.73L242.61 248.82L242.33 247.89L242.06 246.96L241.79 246.02L241.51 245.07L241.24 244.11L240.96 243.15L240.69 242.18L240.41 241.20L240.13 240.21L239.85 239.22L239.57 238.22L239.29 237.21L239.01 236.20L238.73 235.18L238.45 234.15L238.17 233.12L237.88 232.07L237.60 231.02L237.31 229.97L237.03 228.90L236.74 227.83L236.46 226.75L236.17 225.67L235.88 224.57L235.59 223.47L235.31 222.37L235.02 221.25L234.73 220.13L234.44 219.00L234.15 217.87L233.86 216.72L233.57 215.57L233.27 214.41L232.98 213.25L232.69 212.07L232.40 210.89L232.10 209.71L231.81 208.51L231.52 207.31L231.22 206.10L230.93 204.88L230.63 203.66L230.34 202.43L230.04 201.19L229.75 199.94L229.45 198.69L229.16 197.42L228.86 196.15L228.56 194.88L228.27 193.59L227.97 192.30L227.68 191.00L227.38 189.70L227.08 188.38L226.79 187.06L226.49 185.73L226.20 184.39L225.90 183.05L225.60 181.69L225.31 180.34L225.01 178.98L224.71 177.62L224.41 176.24L224.12 174.86L223.82 173.47L223.53 172.07L223.23 170.67L222.94 169.25L222.64 167.83L222.35 166.40L222.06 164.96L221.76 163.51L221.47 162.05L221.18 160.59L220.89 159.12L220.60 157.63L220.31 156.14L220.03 154.64L219.74 153.14L219.45 151.62L219.17 150.10L218.88 148.56L218.88 148.56L218.61 147.03L218.33 145.52L218.06 144.00L217.79 142.50L217.53 141.00L217.27 139.51L217.02 138.03L216.77 136.56L216.52 135.09L216.28 133.63L216.04 132.18L215.81 130.74L215.58 129.31L215.36 127.88L215.13 126.46L214.92 125.04L214.71 123.64L214.50 122.24L214.30 120.85L214.10 119.46L213.90 118.09L213.71 116.72L213.53 115.36L213.35 114.01L213.17 112.68L213.00 111.35L212.83 110.03L212.67 108.72L212.51 107.41L212.36 106.12L212.21 104.83L212.07 103.55L211.93 102.27L211.79 101.01L211.66 99.75L211.54 98.50L211.42 97.26L211.31 96.02L211.20 94.80L211.09 93.58L210.99 92.36L210.90 91.16L210.81 89.96L210.72 88.77L210.64 87.59L210.57 86.41L210.50 85.25L210.44 84.09L210.38 82.93L210.32 81.79L210.28 80.65L210.23 79.52L210.19 78.40L210.16 77.28L210.13 76.17L210.11 75.07L210.09 73.98L210.08 72.89L210.07 71.82L210.07 70.74L210.08 69.68L210.09 68.62L210.10 67.57L210.12 66.53L210.15 65.50L210.18 64.47L210.21 63.45L210.25 62.44L210.30 61.43L210.35 60.43L210.41 59.44L210.47 58.46L210.54 57.48L210.62 56.51L210.70 55.55L210.78 54.60L210.87 53.65L210.97 52.71L211.07 51.78L211.18 50.85L211.29 49.93L211.41 49.02L211.53 48.11L211.66 47.22L211.80 46.32L211.94 45.44L212.09 44.56L212.24 43.69L212.40 42.83L212.56 41.98L212.73 41.13L212.90 40.29L212.90 40.29L213.37 38.21L213.88 36.18L214.43 34.19L215.02 32.26L215.66 30.38L216.33 28.55L217.04 26.76L217.80 25.03L218.59 23.35L219.41 21.80L220.27 20.30L221.17 18.85L222.11 17.46L223.08 16.12L224.10 14.83L225.15 13.60L226.25 12.42L227.38 11.30L228.50 10.57L229.63 10.10L230.79 9.70L231.99 9.37L233.22 9.10L234.49 8.90L235.79 8.78L237.12 8.72L238.58 8.49L240.08 8.27L241.62 8.12L243.20 8.03L244.81 8.00L246.45 8.03L248.13 8.13L249.35 8.77L250.60 9.48L251.86 10.26L251.86 10.26L253.49 11.39L255.12 12.60L256.91 13.85L258.92 15.12L260.93 16.48L262.93 17.92L264.93 19.43L267.04 20.76L269.26 21.86L271.48 23.05L273.69 24.33L275.88 25.68L278.04 26.79L280.17 27.54L282.28 28.38L284.37 29.31L286.45 30.33L288.41 31.38L288.41 31.38L288.33 32.56L288.19 34.89L287.97 38.28L287.65 42.56L287.28 47.59L286.88 53.18L286.46 59.13L286.04 65.22L285.63 71.25L285.25 77.07L284.91 82.52L284.60 87.50L284.33 91.94L284.11 95.80L283.92 99.08L283.76 101.80L283.64 104.01L283.54 105.77L283.46 107.12L283.41 108.15L283.37 108.91L283.34 109.46L283.32 109.85L283.30 110.12L283.29 110.30L283.28 110.41L283.28 110.49L283.28 110.54L283.28 110.57L283.28 110.58L283.27 110.59L283.27 110.60L283.27 110.60L283.27 110.60L283.27 110.60L283.27 110.60L283.27 110.60L283.27 110.60L283.27 110.60L283.27 110.60L283.27 110.60L283.27 110.60L283.27 110.60L283.27 110.60L283.27 110.60L283.27 110.60L283.27 110.60L283.27 110.60L283.27 110.60L283.27 110.60L283.27 110.60L283.27 110.60L283.27 110.60L283.27 110.60L283.27 110.60L283.27 110.60L283.27 110.60L283.27 110.60L283.27 110.60L283.27 110.60L283.27 110.60L283.27 110.60L283.27 110.60L283.27 110.60L283.27 110.60L283.27 110.60L283.27 110.60L283.27 110.60L280.79 109.45L278.38 108.16L276.05 106.46L273.81 104.89L271.69 103.46L269.67 102.15L267.94 100.56L266.32 99.12L264.80 97.84L263.39 96.72L262.08 95.76L260.90 94.96L259.98 94.24L259.16 93.70L259.16 93.70L258.39 93.36L257.65 93.20L256.96 93.21L256.31 93.40L255.71 93.77L255.14 94.31L254.63 95.03L254.15 95.94L253.57 97.14L253.04 98.53L252.57 100.08L252.16 101.80L251.80 103.69L251.49 105.75L251.49 105.75L251.40 106.48L251.32 107.24L251.24 108.02L251.17 108.82L251.10 109.65L251.04 110.49L250.99 111.36L250.94 112.25L250.89 113.17L250.85 114.10L250.82 115.06L250.80 116.04L250.77 117.05L250.76 118.07L250.75 119.12L250.75 120.19L250.75 121.28L250.75 122.40L250.77 123.53L250.79 124.69L250.81 125.87L250.84 127.08L250.87 128.30L250.91 129.55L250.96 130.82L251.01 132.12L251.07 133.43L251.13 134.77L251.20 136.13L251.27 137.51L251.35 138.92L251.43 140.34L251.52 141.79L251.62 143.26L251.72 144.76L251.82 146.27L251.93 147.81L252.05 149.37L252.17 150.95L252.29 152.56L252.42 154.18ZM325.16 191.05L325.16 191.05L324.96 193.14L324.80 195.12L324.68 197.00L324.61 198.78L324.57 200.45L324.57 202.01L324.61 203.47L324.69 204.83L324.80 206.08L324.96 207.22L325.15 208.25L325.39 209.18L325.66 210.01L325.97 210.73L326.31 211.34L326.70 211.85L327.12 212.25L327.59 212.55L328.09 212.74L328.64 212.84L329.23 212.87L329.23 212.87L329.85 212.76L330.46 212.56L331.05 212.27L331.62 211.88L332.18 211.40L332.72 210.82L333.25 210.15L333.77 209.38L334.27 208.52L334.76 207.57L335.24 206.52L335.70 205.38L336.15 204.15L336.59 202.85L337.00 201.48L337.41 200.02L337.80 198.45L338.18 196.77L338.54 195.00L338.89 193.12L339.22 191.14L339.22 191.14L339.47 189.47L339.97 186.16L340.70 181.30L341.65 175.01L342.78 167.46L344.07 158.85L345.49 149.41L346.99 139.38L348.55 129.00L350.13 118.50L351.69 108.10L353.20 98.01L354.65 88.39L356.00 79.38L357.25 71.07L358.38 63.54L359.38 56.82L360.27 50.92L361.04 45.81L361.69 41.45L362.24 37.79L362.70 34.76L363.07 32.29L363.37 30.30L363.60 28.73L363.79 27.50L363.93 26.56L364.04 25.85L364.11 25.31L364.17 24.92L364.22 24.64L364.25 24.44L364.27 24.30L364.28 24.20L364.29 24.14L364.30 24.09L364.30 24.06L364.31 24.04L364.31 24.03L364.31 24.02L364.31 24.02L364.31 24.02L364.31 24.01L364.31 24.01L364.31 24.01L364.31 24.01L364.31 24.01L364.31 24.01L364.31 24.01L364.31 24.01L364.31 24.01L364.31 24.01L364.31 24.01L364.31 24.01L364.31 24.01L364.31 24.01L364.31 24.01L364.31 24.01L364.31 24.01L364.31 24.01L364.31 24.01L364.31 24.01L364.31 24.01L364.31 24.01L364.31 24.01L364.31 24.01L364.31 24.01L364.31 24.01L364.31 24.01L364.31 24.01L364.31 24.01L364.31 24.01L364.31 24.01L364.31 24.01L364.31 24.01L364.31 24.01L364.31 24.01L364.31 24.01L364.31 24.01L364.31 24.01L364.31 24.01L364.31 24.01L364.31 24.01L364.31 24.01L364.31 24.01L364.31 24.01L364.31 24.01L364.31 24.01L364.31 24.01L364.31 24.01L364.31 24.01L364.31 24.01L364.31 24.01L364.31 24.01L364.31 24.01L364.31 24.01L364.31 24.01L364.31 24.01L364.31 24.01L364.31 24.01L367.69 24.53L373.96 25.57L380.94 29.70L388.18 34.24L394.64 38.39L399.68 41.60L403.01 43.81L404.86 45.18L405.76 45.84L406.12 46.11L406.24 46.20L406.27 46.22L406.27 46.22L406.27 46.22L406.27 46.22L405.82 47.87L404.92 51.13L403.60 55.92L401.89 62.12L399.84 69.56L397.50 78.04L394.94 87.34L392.22 97.23L389.40 107.46L386.54 117.80L383.72 128.04L380.98 137.99L378.37 147.47L375.92 156.35L373.67 164.53L371.62 171.95L369.80 178.57L368.19 184.39L366.80 189.43L365.62 193.72L364.63 197.33L363.80 200.32L363.13 202.75L362.59 204.71L362.17 206.26L361.83 207.47L361.58 208.39L361.38 209.10L361.24 209.62L361.13 210.01L361.06 210.28L361.00 210.48L360.96 210.62L360.94 210.72L360.92 210.78L360.91 210.83L360.90 210.86L360.89 210.87L360.89 210.89L360.89 210.89L360.89 210.90L360.89 210.90L360.89 210.90L360.89 210.90L360.89 210.90L360.89 210.90L360.89 210.90L360.89 210.90L360.89 210.90L360.89 210.90L360.89 210.90L360.89 210.90L360.89 210.90L360.89 210.90L360.89 210.90L360.89 210.90L360.89 210.90L360.89 210.90L360.89 210.90L360.89 210.90L360.89 210.90L360.89 210.90L360.89 210.90L360.89 210.90L360.89 210.90L360.89 210.90L360.89 210.90L360.89 210.90L360.89 210.90L360.89 210.90L360.89 210.90L360.89 210.90L360.89 210.90L360.89 210.90L360.89 210.90L360.89 210.90L360.89 210.90L360.89 210.90L360.89 210.90L360.89 210.90L360.89 210.90L360.89 210.90L360.89 210.90L360.89 210.90L360.89 210.90L360.89 210.90L360.89 210.90L360.89 210.90L360.89 210.90L360.89 210.90L360.89 210.90L360.89 210.90L360.89 210.90L360.89 210.90L360.89 210.90L360.89 210.90L360.89 210.90L360.89 210.90L360.89 210.90L360.89 210.90L360.50 212.31L360.11 213.70L359.71 215.07L359.32 216.44L358.92 217.79L358.53 219.12L358.13 220.44L357.73 221.75L357.33 223.05L356.93 224.33L356.53 225.60L356.13 226.85L355.72 228.10L355.32 229.33L354.91 230.54L354.51 231.75L354.10 232.94L353.69 234.12L353.28 235.28L352.87 236.43L352.46 237.57L352.05 238.70L351.64 239.81L351.22 240.92L350.81 242.00L350.40 243.08L349.98 244.15L349.57 245.20L349.15 246.24L348.74 247.26L348.32 248.28L347.91 249.28L347.49 250.27L347.07 251.25L346.65 252.21L346.24 253.16L345.83 254.08L345.42 254.98L345.02 255.87L344.61 256.74L344.20 257.60L343.80 258.45L343.40 259.28L342.99 260.10L342.59 260.91L342.18 261.70L341.78 262.48L341.38 263.25L340.98 264.01L340.57 264.75L340.17 265.48L339.77 266.19L339.37 266.89L338.97 267.58L338.57 268.26L338.18 268.92L337.78 269.57L337.38 270.21L336.98 270.83L336.59 271.44L336.19 272.04L335.80 272.62L335.80 272.62L334.99 273.91L334.60 274.97L334.24 275.95L333.92 276.84L333.62 277.66L333.35 278.39L333.11 279.04L332.90 279.60L332.63 280.14L332.16 280.74L331.71 281.26L331.28 281.70L330.86 282.07L330.45 282.36L330.06 282.58L329.31 282.96L328.38 283.41L327.44 283.78L326.50 284.08L325.56 284.31L324.62 284.47L323.63 284.98L322.63 285.47L321.63 285.91L320.62 286.28L320.62 286.28L319.98 286.45L319.36 286.59L318.75 286.75L318.16 286.88L317.58 286.99L317.00 287.07L316.44 287.13L315.88 287.16L315.33 287.16L314.79 287.13L314.26 287.09L313.75 287.02L313.24 286.92L312.73 286.79L312.24 286.64L311.75 286.46L311.27 286.25L310.80 286.02L310.33 285.76L309.88 285.46L309.42 285.13L308.97 284.75L308.52 284.35L308.09 283.91L307.66 283.45L307.23 282.97L306.82 282.45L306.41 281.90L306.00 281.33L305.61 280.73L305.22 280.10L304.83 279.43L304.44 278.73L304.06 278.00L303.68 277.24L303.31 276.45L302.95 275.64L302.60 274.80L302.25 273.93L301.90 273.04L301.56 272.12L301.23 271.17L300.91 270.20L300.59 269.20L300.27 268.17L299.96 267.11L299.66 266.04L299.37 264.95L299.08 263.83L298.80 262.68L298.52 261.50L298.25 260.30L297.99 259.07L297.73 257.82L297.48 256.54L297.24 255.23L297.00 253.90L296.77 252.54L296.54 251.15L296.33 249.74L296.11 248.29L295.91 246.83L295.71 245.33L295.52 243.81L295.34 242.27L295.16 240.69L294.99 239.09L294.82 237.46L294.67 235.81L294.53 234.14L294.40 232.44L294.28 230.72L294.17 228.97L294.06 227.20L293.96 225.39L293.87 223.56L293.79 221.71L293.72 219.82L293.66 217.91L293.60 215.98L293.55 214.01L293.51 212.02L293.48 210.00L293.46 207.95L293.45 205.88L293.44 203.77L293.45 201.64L293.45 201.64L293.46 199.82L293.49 196.20L293.53 190.88L293.57 184.01L293.63 175.75L293.70 166.35L293.77 156.03L293.85 145.07L293.93 133.72L294.01 122.24L294.09 110.88L294.16 99.86L294.24 89.34L294.31 79.49L294.37 70.41L294.43 62.18L294.48 54.84L294.53 48.38L294.57 42.79L294.60 38.03L294.63 34.03L294.65 30.72L294.67 28.02L294.68 25.85L294.70 24.13L294.71 22.79L294.71 21.76L294.72 20.98L294.72 20.40L294.73 19.97L294.73 19.66L294.73 19.44L294.73 19.29L294.73 19.18L294.73 19.11L294.73 19.06L294.73 19.03L294.73 19.01L294.73 19.00L294.73 18.99L294.73 18.98L294.73 18.98L294.73 18.98L294.73 18.98L294.73 18.98L294.73 18.98L294.73 18.98L294.73 18.98L294.73 18.98L294.73 18.98L294.73 18.98L294.73 18.98L294.73 18.98L294.73 18.98L294.73 18.98L294.73 18.98L294.73 18.98L294.73 18.98L294.73 18.98L294.73 18.98L294.73 18.98L294.73 18.98L294.73 18.98L294.73 18.98L294.73 18.98L294.73 18.98L294.73 18.98L294.73 18.98L294.73 18.98L294.73 18.98L294.73 18.98L294.73 18.98L294.73 18.98L294.73 18.98L294.73 18.98L294.73 18.98L294.73 18.98L294.73 18.98L294.73 18.98L294.73 18.98L294.73 18.98L294.73 18.98L294.73 18.98L294.73 18.98L294.73 18.98L294.73 18.98L294.73 18.98L294.73 18.98L294.73 18.98L294.73 18.98L294.73 18.98L294.73 18.98L294.73 18.98L294.73 18.98L294.73 18.98L294.73 18.98L294.73 18.98L294.73 18.98L294.73 18.98L294.73 18.98L297.62 18.04L303.91 17.11L312.03 16.58L320.56 17.11L328.12 19.14L334.11 20.38L338.20 21.14L340.60 21.59L341.82 21.67L342.33 21.71L342.49 21.72L342.54 21.72L342.55 21.72L342.55 21.72L342.55 21.72L342.37 23.42L342.03 26.77L341.52 31.70L340.87 38.07L340.08 45.72L339.19 54.44L338.21 64.00L337.16 74.17L336.08 84.69L334.99 95.32L333.91 105.85L332.86 116.07L331.86 125.82L330.92 134.95L330.06 143.37L329.27 151.00L328.57 157.80L327.96 163.79L327.43 168.97L326.97 173.38L326.59 177.09L326.28 180.16L326.02 182.67L325.81 184.68L325.65 186.27L325.52 187.51L325.42 188.47L325.35 189.19L325.29 189.73L325.25 190.12L325.22 190.41L325.20 190.61L325.19 190.76L325.18 190.85L325.17 190.92L325.17 190.97L325.16 191.00L325.16 191.02L325.16 191.03L325.16 191.04L325.16 191.04L325.16 191.04L325.16 191.04L325.16 191.05L325.16 191.05L325.16 191.05L325.16 191.05L325.16 191.05L325.16 191.05L325.16 191.05L325.16 191.05L325.16 191.05L325.16 191.05L325.16 191.05L325.16 191.05L325.16 191.05L325.16 191.05L325.16 191.05L325.16 191.05L325.16 191.05L325.16 191.05L325.16 191.05L325.16 191.05L325.16 191.05L325.16 191.05L325.16 191.05L325.16 191.05L325.16 191.05L325.16 191.05L325.16 191.05L325.16 191.05L325.16 191.05L325.16 191.05L325.16 191.05L325.16 191.05L325.16 191.05L325.16 191.05L325.16 191.05L325.16 191.05L325.16 191.05L325.16 191.05L325.16 191.05L325.16 191.05L325.16 191.05L325.16 191.05L325.16 191.05L325.16 191.05L325.16 191.05L325.16 191.05L325.16 191.05L325.16 191.05L325.16 191.05L325.16 191.05L325.16 191.05L325.16 191.05L325.16 191.05L325.16 191.05L325.16 191.05L325.16 191.05ZM450.68 179.23L450.68 179.23L449.23 176.92L446.66 172.84L443.24 168.29L440.25 164.40L438.30 161.95L437.31 160.69L436.95 160.24L436.86 160.14L436.86 160.14L436.27 161.41L435.09 163.92L433.35 167.61L431.10 172.38L428.41 178.11L425.33 184.64L421.96 191.80L418.38 199.41L414.68 207.28L410.93 215.25L407.22 223.13L403.61 230.79L400.18 238.09L396.96 244.93L393.99 251.23L391.31 256.94L388.91 262.04L386.80 266.52L384.97 270.40L383.42 273.71L382.11 276.49L381.03 278.78L380.15 280.66L379.44 282.17L378.88 283.36L378.44 284.29L378.10 285.00L377.85 285.54L377.66 285.95L377.52 286.24L377.42 286.46L377.34 286.61L377.29 286.72L377.26 286.79L377.24 286.84L377.22 286.88L377.21 286.90L377.20 286.91L377.20 286.92L377.20 286.93L377.19 286.93L377.19 286.93L377.19 286.93L377.19 286.94L377.19 286.94L377.19 286.94L377.19 286.94L377.19 286.94L377.19 286.94L377.19 286.94L377.19 286.94L377.19 286.94L377.19 286.94L377.19 286.94L377.19 286.94L377.19 286.94L377.19 286.94L377.19 286.94L377.19 286.94L377.19 286.94L377.19 286.94L377.19 286.94L377.19 286.94L377.19 286.94L377.19 286.94L377.19 286.94L377.19 286.94L377.19 286.94L377.19 286.94L377.19 286.94L377.19 286.94L377.19 286.94L377.19 286.94L377.19 286.94L377.19 286.94L377.19 286.94L377.19 286.94L377.19 286.94L377.19 286.94L377.19 286.94L377.19 286.94L377.19 286.94L377.19 286.94L377.19 286.94L377.19 286.94L377.19 286.94L377.19 286.94L377.19 286.94L377.19 286.94L377.19 286.94L377.19 286.94L377.19 286.94L377.19 286.94L377.19 286.94L377.19 286.94L377.19 286.94L377.19 286.94L377.19 286.94L377.19 286.94L377.19 286.94L375.67 287.46L372.90 288.59L369.27 289.58L365.44 290.30L362.20 291.55L359.60 292.47L357.83 293.08L356.81 293.42L356.32 293.59L356.13 293.67L356.06 293.69L356.05 293.69L356.05 293.70L356.05 293.70L356.05 293.70L356.62 292.08L357.77 288.87L359.45 284.17L361.62 278.08L364.23 270.77L367.20 262.44L370.47 253.30L373.93 243.59L377.52 233.54L381.15 223.37L384.74 213.31L388.22 203.55L391.55 194.23L394.66 185.51L397.53 177.47L400.13 170.18L402.46 163.67L404.50 157.96L406.26 153.01L407.77 148.79L409.03 145.25L410.08 142.31L410.93 139.92L411.62 138.00L412.16 136.48L412.59 135.29L412.91 134.38L413.16 133.69L413.34 133.17L413.48 132.79L413.57 132.52L413.64 132.33L413.69 132.19L413.73 132.10L413.75 132.03L413.77 131.99L413.78 131.96L413.78 131.94L413.79 131.93L413.79 131.92L413.79 131.92L413.79 131.92L413.79 131.91L413.79 131.91L413.79 131.91L413.79 131.91L413.79 131.91L413.79 131.91L413.79 131.91L413.79 131.91L413.79 131.91L413.79 131.91L413.79 131.91L413.79 131.91L413.79 131.91L413.79 131.91L413.79 131.91L413.79 131.91L413.79 131.91L413.79 131.91L413.79 131.91L413.79 131.91L413.79 131.91L413.79 131.91L413.79 131.91L413.79 131.91L413.79 131.91L413.79 131.91L413.79 131.91L413.79 131.91L413.79 131.91L413.79 131.91L413.79 131.91L413.79 131.91L413.79 131.91L413.79 131.91L413.79 131.91L413.79 131.91L413.79 131.91L413.79 131.91L413.79 131.91L413.79 131.91L413.79 131.91L413.79 131.91L413.79 131.91L413.79 131.91L413.79 131.91L413.79 131.91L413.79 131.91L413.79 131.91L413.79 131.91L413.79 131.91L413.79 131.91L413.79 131.91L413.79 131.91L413.79 131.91L413.79 131.91L413.79 131.91L413.79 131.91L413.79 131.91L411.52 130.42L407.49 127.76L402.68 124.33L398.36 121.18L395.32 118.91L393.66 117.67L392.99 117.17L392.81 117.04L392.78 117.02L392.78 117.02L393.11 115.99L393.74 113.97L394.67 111.04L395.84 107.32L397.22 102.97L398.74 98.15L400.35 93.07L402.00 87.90L403.61 82.81L405.16 77.96L406.60 73.47L407.89 69.42L409.03 65.85L410.01 62.80L410.83 60.25L411.50 58.16L412.04 56.51L412.45 55.22L412.77 54.24L413.00 53.52L413.17 53.00L413.28 52.64L413.36 52.39L413.42 52.22L413.45 52.11L413.47 52.05L413.49 52.00L413.50 51.98L413.50 51.96L413.50 51.95L413.50 51.95L413.51 51.95L413.51 51.95L413.51 51.95L413.51 51.95L413.51 51.95L413.51 51.95L413.51 51.95L413.51 51.95L413.51 51.95L413.51 51.95L413.51 51.95L413.51 51.95L413.51 51.95L413.51 51.95L413.51 51.95L413.51 51.95L413.51 51.95L413.51 51.95L413.51 51.95L413.51 51.95L413.51 51.95L413.51 51.95L413.51 51.95L413.51 51.95L413.51 51.95L413.51 51.95L413.51 51.95L413.51 51.95L413.51 51.95L413.51 51.95L413.51 51.95L413.51 51.95L413.51 51.95L416.06 54.22L421.00 58.63L427.96 64.83L436.26 72.38L442.90 82.63L449.14 93.37L454.65 103.80L459.43 113.19L463.76 120.96L467.40 127.05L469.91 131.81L471.49 135.35L472.57 137.75L473.26 139.29L473.57 140.25L473.70 140.81L473.77 141.11L473.80 141.26L473.81 141.33L473.82 141.36L473.82 141.37L473.83 141.37L473.83 141.37L473.83 141.38L473.83 141.38L473.83 141.38L473.83 141.38L473.83 141.38L473.83 141.38L473.83 141.38L473.83 141.38L473.83 141.38L473.83 141.38L473.47 141.96L472.76 143.11L471.74 144.78L470.43 146.91L468.90 149.40L467.21 152.17L465.42 155.10L463.60 158.09L461.81 161.04L460.10 163.86L458.48 166.49L457.02 168.88L455.73 170.98L454.62 172.78L453.69 174.30L452.94 175.53L452.34 176.51L451.87 177.28L451.52 177.86L451.26 178.29L451.07 178.60L450.93 178.82L450.84 178.96L450.78 179.06L450.74 179.13L450.72 179.17L450.70 179.19L450.69 179.21L450.69 179.22L450.69 179.22L450.68 179.23L450.68 179.23L450.68 179.23L450.68 179.23L450.68 179.23L450.68 179.23L450.68 179.23L450.68 179.23L450.68 179.23L450.68 179.23L450.68 179.23L450.68 179.23L450.68 179.23L450.68 179.23L450.68 179.23L450.68 179.23L450.68 179.23L450.68 179.23L450.68 179.23L450.68 179.23L450.68 179.23L450.68 179.23L450.68 179.23L450.68 179.23L450.68 179.23L450.68 179.23L450.68 179.23L450.68 179.23L450.68 179.23L450.68 179.23L450.68 179.23L450.68 179.23L450.68 179.23ZM399.41 300.46L399.41 300.46L398.93 299.68L398.93 299.68L398.41 298.75L397.99 297.78L397.65 296.76L397.41 295.68L397.25 294.56L397.18 293.38L397.21 292.14L397.32 290.85L397.53 289.50L397.53 289.50L397.66 288.93L397.79 288.34L397.94 287.74L398.11 287.13L398.29 286.51L398.49 285.89L398.70 285.25L398.92 284.60L399.16 283.94L399.42 283.27L399.69 282.59L399.98 281.90L400.28 281.21L400.58 280.51L400.90 279.83L401.23 279.13L401.57 278.42L401.94 277.70L402.32 276.96L402.71 276.21L403.13 275.45L403.56 274.67L404.00 273.89L404.00 273.89L404.47 273.09L404.93 272.31L405.38 271.56L405.84 270.84L406.28 270.13L406.72 269.46L407.16 268.81L407.59 268.18L408.02 267.58L408.44 267.01L408.84 266.49L409.23 266.00L409.61 265.54L409.99 265.11L410.36 264.71L410.72 264.34L411.08 264.00L411.43 263.69L411.77 263.40L412.10 263.15L412.43 262.92L412.75 262.72L413.06 262.56L413.06 262.56L413.80 262.29L414.51 262.21L415.21 262.31L415.88 262.60L416.53 263.07L417.16 263.72L417.76 264.55L418.35 265.56L418.91 266.75L418.91 266.75L419.48 268.32L419.90 269.87L420.23 271.38L420.48 272.87L420.64 274.32L420.73 275.73L420.71 277.12L420.59 278.47L420.41 279.79L420.14 281.07L420.14 281.07L420.00 281.62L419.85 282.18L419.69 282.74L419.51 283.30L419.32 283.87L419.12 284.45L418.91 285.02L418.69 285.60L418.45 286.19L418.20 286.78L417.94 287.37L417.66 287.97L417.38 288.58L417.08 289.18L416.77 289.80L416.44 290.41L416.11 291.04L415.76 291.66L415.40 292.30L415.02 292.93L414.64 293.58L414.24 294.23L414.24 294.23L413.81 294.89L413.39 295.53L412.98 296.15L412.57 296.74L412.17 297.31L411.78 297.85L411.40 298.37L411.02 298.87L410.64 299.35L410.28 299.81L409.92 300.24L409.56 300.64L409.22 301.03L408.87 301.39L408.54 301.74L408.21 302.05L407.89 302.35L407.57 302.63L407.26 302.88L406.96 303.11L406.66 303.32L406.37 303.50L406.08 303.66L405.80 303.81L405.80 303.81L405.12 304.05L404.44 304.16L403.79 304.13L403.13 303.97L402.45 303.68L401.78 303.26L401.13 302.69L400.48 301.99L399.85 301.13ZM489.04 266.93L489.04 266.93L488.51 267.51L487.45 268.65L485.89 270.33L483.88 272.50L481.46 275.11L478.70 278.08L475.68 281.33L472.47 284.79L469.15 288.38L465.79 292.00L462.46 295.59L459.23 299.07L456.15 302.39L453.26 305.50L450.60 308.36L448.19 310.96L446.04 313.28L444.15 315.32L442.51 317.08L441.12 318.59L439.95 319.85L438.98 320.90L438.18 321.75L437.55 322.43L437.05 322.98L436.65 323.40L436.35 323.73L436.12 323.97L435.95 324.15L435.83 324.29L435.74 324.39L435.67 324.46L435.63 324.51L435.60 324.54L435.58 324.56L435.56 324.58L435.55 324.59L435.55 324.59L435.54 324.60L435.54 324.60L435.54 324.60L435.54 324.60L435.54 324.60L435.54 324.60L435.54 324.60L435.54 324.60L435.54 324.60L435.54 324.60L435.54 324.60L435.54 324.60L435.54 324.60L435.54 324.60L435.54 324.60L435.54 324.60L435.54 324.60L435.54 324.60L435.54 324.60L435.54 324.60L435.54 324.60L435.54 324.60L435.54 324.60L435.54 324.60L435.54 324.60L435.54 324.60L435.54 324.60L435.54 324.60L435.54 324.60L435.54 324.60L435.54 324.60L435.54 324.60L435.54 324.60L435.54 324.60L435.54 324.60L435.54 324.60L435.54 324.60L435.54 324.60L435.54 324.60L435.54 324.60L435.54 324.60L435.54 324.60L435.54 324.60L435.54 324.60L435.54 324.60L435.54 324.60L435.54 324.60L435.54 324.60L435.54 324.60L435.54 324.60L435.54 324.60L435.54 324.60L435.54 324.60L435.54 324.60L435.54 324.60L435.54 324.60L435.54 324.60L435.54 324.60L435.54 324.60L435.54 324.60L435.54 324.60L435.54 324.60L435.12 325.05L434.71 325.48L434.31 325.90L433.91 326.30L433.51 326.70L433.13 327.08L432.74 327.45L432.36 327.80L431.99 328.15L431.63 328.48L431.26 328.80L430.91 329.11L430.56 329.40L430.21 329.68L429.87 329.96L429.54 330.22L429.21 330.46L428.88 330.70L428.57 330.93L428.25 331.14L427.94 331.34L427.64 331.53L427.34 331.71L427.05 331.88L426.76 332.03L426.48 332.18L426.20 332.31L425.93 332.43L425.67 332.54L425.40 332.64L425.15 332.73L424.90 332.81L424.65 332.87L424.40 332.93L424.15 332.98L423.89 333.02L423.64 333.04L423.40 333.06L423.16 333.07L422.92 333.06L422.69 333.05L422.69 333.05L422.12 332.93L421.56 332.75L421.01 332.49L420.46 332.16L419.92 331.76L419.33 331.31L418.66 330.82L417.97 330.26L417.29 329.63L416.60 328.93L415.91 328.16L415.20 327.33L414.49 326.43L413.77 325.45L413.05 324.40L412.33 323.27L412.33 323.27L411.50 321.87L410.13 319.57L408.83 317.37L408.04 316.02L407.77 315.55L407.77 315.55L408.06 315.08L408.63 314.15L409.45 312.81L410.49 311.11L411.70 309.14L413.02 306.98L414.39 304.72L415.76 302.46L417.08 300.28L418.31 298.24L419.43 296.40L420.42 294.78L421.25 293.40L421.94 292.26L422.50 291.34L422.93 290.62L423.26 290.08L423.51 289.68L423.68 289.39L423.80 289.19L423.88 289.06L423.93 288.97L423.97 288.91L423.99 288.88L424.00 288.86L424.01 288.85L424.01 288.84L424.01 288.84L424.01 288.83L424.01 288.83L424.02 288.83L424.02 288.83L424.02 288.83L424.02 288.83L424.02 288.83L424.02 288.83L424.02 288.83L424.02 288.83L424.02 288.83L424.02 288.83L424.02 288.83L424.02 288.83L424.02 288.83L424.02 288.83L424.02 288.83L424.02 288.83L424.02 288.83L424.02 288.83L424.02 288.83L424.02 288.83L424.02 288.83L424.02 288.83L424.02 288.83L424.02 288.83L424.02 288.83L424.02 288.83L424.80 290.70L425.97 293.28L426.66 294.80L426.66 294.80L427.31 295.87L427.31 295.87L427.73 295.83L428.13 295.72L428.51 295.53L428.88 295.26L429.24 294.91L429.59 294.49L429.59 294.49L430.12 293.74L431.17 292.27L432.71 290.10L434.71 287.30L437.10 283.94L439.83 280.10L442.83 275.90L446.01 271.43L449.31 266.81L452.64 262.13L455.93 257.50L459.14 253.01L462.19 248.72L465.05 244.71L467.68 241.01L470.07 237.66L472.21 234.66L474.08 232.03L475.70 229.76L477.09 227.82L478.25 226.19L479.21 224.84L479.99 223.74L480.62 222.85L481.12 222.15L481.51 221.61L481.81 221.19L482.04 220.87L482.20 220.63L482.33 220.46L482.42 220.33L482.48 220.24L482.53 220.18L482.56 220.14L482.58 220.11L482.59 220.09L482.60 220.07L482.61 220.06L482.61 220.06L482.61 220.06L482.62 220.05L482.62 220.05L482.62 220.05L482.62 220.05L482.62 220.05L482.62 220.05L482.62 220.05L482.62 220.05L482.62 220.05L482.62 220.05L482.62 220.05L482.62 220.05L482.62 220.05L482.62 220.05L482.62 220.05L482.62 220.05L482.62 220.05L482.62 220.05L482.62 220.05L482.62 220.05L482.62 220.05L482.62 220.05L482.62 220.05L482.62 220.05L482.62 220.05L482.62 220.05L482.62 220.05L482.62 220.05L482.62 220.05L482.62 220.05L482.62 220.05L482.62 220.05L482.62 220.05L482.62 220.05L482.62 220.05L482.62 220.05L482.62 220.05L482.62 220.05L482.62 220.05L482.62 220.05L482.62 220.05L482.62 220.05L482.62 220.05L482.62 220.05L482.62 220.05L482.62 220.05L482.62 220.05L482.62 220.05L482.62 220.05L482.62 220.05L482.62 220.05L482.62 220.05L482.62 220.05L482.62 220.05L482.62 220.05L482.62 220.05L482.62 220.05L482.62 220.05L482.62 220.05L482.62 220.05L483.29 223.40L484.42 229.64L485.54 237.72L486.77 246.14L487.89 253.63L488.75 259.37L489.01 263.19L489.03 265.35L489.04 266.38L489.04 266.78L489.04 266.90L489.04 266.93L489.04 266.93ZM467.48 300.45L467.48 300.45L467.50 300.44L467.54 300.39L467.62 300.31L467.72 300.21L467.86 300.07L468.03 299.90L468.23 299.71L468.45 299.48L468.71 299.22L469.00 298.93L469.32 298.61L469.67 298.26L470.05 297.88L470.46 297.47L470.90 297.03L471.37 296.56L471.87 296.06L472.40 295.53L472.40 295.53L472.68 295.25L472.96 295.00L473.24 294.76L473.51 294.53L473.79 294.31L474.07 294.11L474.34 293.93L474.62 293.76L474.90 293.60L475.17 293.46L475.45 293.33L475.73 293.22L476.00 293.12L476.28 293.04L476.55 292.97L476.83 292.92L477.10 292.89L477.38 292.87L477.65 292.86L477.92 292.87L478.20 292.90L478.47 292.94L478.73 293.00L478.99 293.08L479.24 293.17L479.50 293.27L479.75 293.40L480.00 293.54L480.25 293.70L480.49 293.87L480.74 294.06L480.98 294.27L481.23 294.49L481.47 294.73L481.71 294.99L481.95 295.27L482.19 295.56L482.43 295.88L482.66 296.20L482.89 296.55L483.13 296.92L483.13 296.92L483.50 297.57L483.83 298.27L484.11 299.03L484.36 299.85L484.60 300.72L484.80 301.65L484.99 302.63L485.15 303.67L485.28 304.77L485.39 305.92L485.38 307.10L485.32 308.32L485.22 309.60L485.10 310.93L484.95 312.31L484.77 313.75L484.57 315.23L484.19 316.73L483.68 318.25L483.14 319.82L482.56 321.43L481.96 323.09L481.32 324.80L480.79 326.58L480.79 326.58L480.32 329.53L479.83 332.49L479.34 335.45L478.99 338.46L478.79 341.50L478.58 344.54L478.36 347.58L477.06 350.20L475.38 352.65L473.69 355.11L472.00 357.58L470.96 360.45L469.91 363.33L468.87 366.20L467.69 368.95L466.07 371.29L464.46 373.64L464.46 373.64L464.31 373.68L464.02 373.75L463.59 373.86L463.04 374.00L462.38 374.16L461.65 374.35L460.87 374.55L460.07 374.76L459.26 374.98L458.48 375.19L457.75 375.39L457.07 375.57L456.47 375.74L455.94 375.89L455.50 376.01L455.13 376.12L454.83 376.20L454.59 376.27L454.41 376.32L454.27 376.36L454.17 376.39L454.09 376.41L454.04 376.43L454.01 376.44L453.98 376.44L453.97 376.45L453.96 376.45L453.95 376.45L453.95 376.45L453.95 376.45L453.95 376.45L453.94 376.45L453.94 376.45L453.94 376.45L453.94 376.45L453.94 376.45L453.94 376.45L453.94 376.45L453.94 376.45L453.94 376.45L453.94 376.45L453.94 376.45L453.94 376.45L453.94 376.45L453.94 376.45L453.94 376.45L453.94 376.45L453.94 376.45L453.94 376.45L453.94 376.45L453.94 376.45L453.94 376.45L453.94 376.45L453.94 376.45L453.94 376.45L453.94 376.45L453.94 376.45L453.94 376.45L453.94 376.45L453.94 376.45L453.94 376.45L453.94 376.45L453.94 376.45L453.94 376.45L453.94 376.45L453.94 376.45L453.94 376.45L455.34 373.53L456.39 370.49L457.39 367.60L458.47 364.92L459.84 362.63L461.14 360.48L462.36 358.46L463.23 356.47L463.43 354.40L463.61 352.49L463.76 350.75L463.89 349.17L463.98 347.77L464.11 346.55L464.11 346.55L464.28 345.06L464.40 343.75L464.45 342.63L464.43 341.69L464.36 340.95L464.22 340.40L464.01 340.03L463.75 339.86L463.42 339.87L463.03 340.07L463.03 340.07L462.69 340.36L462.39 340.71L462.12 341.11L461.89 341.57L461.69 342.08L461.69 342.08L461.31 343.18L461.03 344.00L461.03 344.00L460.73 344.94L460.35 346.29L460.35 346.29L459.96 347.77L459.62 348.98L459.62 348.98L459.45 349.58L459.21 350.41L458.99 351.46L458.72 352.74L458.41 354.23L458.06 355.93L458.06 355.93L457.73 357.50L457.43 358.96L457.14 360.31L456.55 361.44L455.91 362.43L455.33 363.33L454.80 364.15L454.33 364.88L454.33 364.88L453.90 365.54L453.45 366.23L452.97 366.94L452.48 367.69L451.97 368.46L451.45 369.25L451.02 370.16L450.59 371.09L450.14 372.06L449.68 373.04L449.68 373.04L449.42 373.58L449.17 374.11L448.91 374.63L448.66 375.14L448.41 375.64L448.15 376.14L447.90 376.62L447.65 377.10L447.40 377.57L447.15 378.02L446.91 378.48L446.66 378.92L446.37 379.32L446.08 379.70L445.78 380.08L445.49 380.44L445.20 380.80L444.92 381.16L444.64 381.51L444.35 381.85L444.08 382.18L443.80 382.51L443.53 382.83L443.25 383.15L442.98 383.45L442.72 383.75L442.45 384.05L442.19 384.34L441.93 384.62L441.67 384.89L441.41 385.16L441.16 385.42L440.90 385.68L440.65 385.93L440.40 386.17L440.15 386.41L439.91 386.64L439.66 386.86L439.42 387.08L439.18 387.29L438.94 387.49L438.70 387.69L438.46 387.89L438.22 388.07L437.99 388.26L437.75 388.43L437.52 388.60L437.29 388.76L437.06 388.92L436.83 389.07L436.60 389.22L436.37 389.36L436.14 389.49L435.92 389.62L435.69 389.75L435.46 389.86L435.24 389.98L435.24 389.98L435.01 390.08L434.79 390.18L434.58 390.27L434.36 390.36L434.15 390.44L433.95 390.52L433.74 390.60L433.54 390.67L433.34 390.73L433.15 390.79L432.95 390.84L432.76 390.89L432.57 390.93L432.39 390.97L432.20 391.01L432.02 391.04L431.85 391.06L431.67 391.08L431.50 391.10L431.33 391.11L431.16 391.11L430.99 391.11L430.83 391.11L430.66 391.10L430.50 391.09L430.35 391.07L430.19 391.05L430.04 391.03L429.88 391.00L429.73 390.96L429.58 390.92L429.44 390.88L429.29 390.83L429.15 390.78L429.01 390.72L428.87 390.66L428.73 390.60L428.60 390.53L428.46 390.45L428.33 390.38L428.20 390.29L428.07 390.21L427.94 390.12L427.82 390.02L427.69 389.92L427.57 389.82L427.45 389.71L427.33 389.60L427.21 389.49L427.10 389.37L426.98 389.24L426.87 389.11L426.76 388.98L426.64 388.84L426.52 388.70L426.40 388.54L426.28 388.39L426.17 388.23L426.17 388.23L425.90 387.83L425.65 387.41L425.41 386.98L425.18 386.53L424.96 386.06L424.75 385.57L424.55 385.06L424.36 384.54L424.18 384.00L424.01 383.43L423.85 382.85L423.69 382.25L423.55 381.62L423.42 380.98L423.29 380.31L423.15 379.61L423.01 378.89L422.89 378.15L422.78 377.39L422.69 376.60L422.61 375.79L422.54 374.96L422.47 374.10L422.40 373.21L422.36 372.30L422.36 372.30L422.32 370.97L422.29 369.63L422.26 368.29L422.25 366.94L422.26 365.58L422.28 364.21L422.32 362.83L422.38 361.44L422.46 360.03L422.56 358.60L422.69 357.17L422.84 355.71L423.00 354.24L423.19 352.74L423.40 351.23L423.64 349.70L423.89 348.14L424.17 346.56L424.17 346.56L424.45 346.30L425.00 345.80L425.81 345.07L426.84 344.14L428.04 343.05L429.37 341.85L430.77 340.59L432.20 339.30L433.61 338.04L434.96 336.83L436.20 335.72L437.33 334.71L438.33 333.83L439.18 333.07L439.90 332.44L440.48 331.92L440.95 331.51L441.31 331.19L441.59 330.94L441.79 330.76L441.94 330.63L442.04 330.54L442.11 330.48L442.16 330.43L442.19 330.41L442.21 330.39L442.23 330.38L442.23 330.37L442.24 330.37L442.24 330.37L442.24 330.37L442.24 330.36L442.24 330.36L442.24 330.36L442.24 330.36L442.24 330.36L442.24 330.36L442.24 330.36L442.24 330.36L442.24 330.36L442.24 330.36L442.24 330.36L442.24 330.36L442.24 330.36L442.24 330.36L442.24 330.36L442.24 330.36L442.24 330.36L442.24 330.36L442.24 330.36L442.24 330.36L442.24 330.36L442.24 330.36L442.24 330.36L442.24 330.36L442.24 330.36L442.24 330.36L442.24 330.36L442.24 330.36L442.24 330.36L442.24 330.36L442.24 330.36L442.24 330.36L442.24 330.36L442.24 330.36L441.79 332.85L441.37 335.23L440.97 337.48L440.58 339.62L440.22 341.65L439.89 343.57L439.55 345.37L439.23 347.06L438.93 348.66L438.67 350.15L438.43 351.54L438.17 352.83L437.91 354.02L437.69 355.11L437.50 356.11L437.35 357.03L437.22 357.85L437.22 357.85L437.12 358.81L437.15 359.65L437.23 360.33L437.37 360.87L437.55 361.26L437.79 361.50L438.08 361.59L438.42 361.54L438.82 361.34L438.82 361.34L439.11 361.10L439.39 360.83L439.65 360.52L439.89 360.18L440.11 359.79L440.32 359.37L440.32 359.37L440.57 358.73L440.83 358.03L441.10 357.26L441.37 356.43L441.65 355.53L441.65 355.53L441.93 354.76L442.25 353.94L442.59 353.05L442.95 352.09L443.33 351.08L443.74 350.00L444.17 348.85L444.17 348.85L444.65 347.57L445.09 346.34L445.46 345.15L445.80 344.02L446.14 342.95L446.46 341.93L446.76 340.98L447.04 340.10L447.30 339.27L447.30 339.27L447.54 338.54L447.80 337.78L448.06 336.97L448.33 336.14L448.62 335.27L448.92 334.36L449.24 333.42L449.59 332.45L449.95 331.44L450.33 330.39L450.33 330.39L450.56 329.77L450.79 329.16L451.02 328.54L451.26 327.94L451.50 327.33L451.74 326.73L451.97 326.13L452.21 325.53L452.45 324.94L452.70 324.35L452.94 323.76L453.19 323.18L453.44 322.60L453.70 322.03L453.95 321.45L454.21 320.89L454.47 320.32L454.74 319.76L455.00 319.21L455.27 318.65L455.54 318.10L455.81 317.56L456.09 317.02L456.37 316.48L456.65 315.95L456.93 315.42L457.22 314.89L457.50 314.37L457.79 313.85L458.09 313.34L458.38 312.83L458.67 312.33L458.96 311.83L459.25 311.33L459.54 310.84L459.84 310.36L460.13 309.87L460.43 309.40L460.74 308.92L461.04 308.46L461.35 307.99L461.66 307.54L461.98 307.08L462.29 306.64L462.61 306.19L462.93 305.75L463.26 305.32L463.59 304.90L463.92 304.47L464.25 304.06L464.58 303.65L464.92 303.24L465.26 302.84L465.61 302.45L465.95 302.06L466.30 301.68L466.65 301.31L467.00 300.94L467.36 300.57Z" fill="#333333" stroke="none" stroke-width="6.05" stroke-linejoin="round" stroke-linecap="round"></path></g></svg>