<svg version="1.1" id="target" xmlns="http://www.w3.org/2000/svg" xmlns:xlink="http://www.w3.org/1999/xlink" x="0px" y="0px" width="491" height="413" viewBox="0 0 491 413" enable-background="new 0 0 491 413" xml:space="preserve">
        
        
        <path fill="#333333" d="M236.5,336.8c-8.5-8.8-16.6-18.5-28.9-21.3c-6-1.4-11-3.9-16.9-5.8c-6-1.9-12.6-2.8-18.8-3.9
        c2.9-3.1,3.6-4,7.5-4.8c3.4-0.7,7.1-1.2,10.4-2.4c6.3-2.3,13.7-3.6,17.9-8.8c-8.5-1.8-16.9-2.7-25.7-2.3
        c-8.4,0.4-15.3,4.5-23.4,5.3c-7.8,0.8-16.8,2.1-23.9,5.4c-3.8,1.7-7.1,4.4-10.6,6.5c-5.2,3.1-6.4,4.3-6.4,10.3
        c6.2-5.8,18.6-2.1,26.5-4c-6,1.9-11.9,3.8-17.9,5.7c-5.4,1.7-5.1,7.3-6.2,12.6c-1.1,5.2-1.8,9.8-1.4,14.9c0.4,6.2-2.2,14.6,5.8,17
        c0.2-2.2,0.1-4.7,0.8-6.8c0.7-2.3,2.9-4.1,3.3-6.5c0.9-4.8-2.2-9.9,2.4-14c3.4-3,12-4.7,16.2-5.7c7.6-1.8,15.1-3.5,21.5,1.1
        c1.1,0.8,4.9,3.4,4.5,5.2c-0.3,1.5-4.8,1.4-6.5,1.4c-5.4-0.1-10.2,2.2-15.6,4.7c-3.6,1.7-9.2,2.5-12,5.4c-1.2,1.2-1.8,3-2.9,4.4
        c-1.4,1.6-3.2,3-4.5,4.7c-2.5,3.2-2.9,6.8-2.7,11c0.5,12.9,12.7,7.3,21.8,9.8c4.2,1.1,16.7,6,20.5,2c1.6-1.7-0.7-2.7-3.4-4
        c-2.4-1.1-4.9-2-7.3-3c-5.1-2.1-11.3-4.1-14.2-9.3c-3.7-6.7,5.1-13.9,10-7.8c3.3,4.1,3,9.4,8.3,11.8c6.3,2.9,14.6,1.1,18.4-4.8
        c2.9-4.5,0-15.9,7-16.8c5.9-0.7,13.5,9.6,16.5,13.8c0.3,0.5,1.7,0.8,1.8,1.3c0.2,2.4-3.4,2.4-5.6,2.9c-4.3,0.9-6.6,0.8-10,3.5
        c-5.4,4.2-12.4,6.2-18.4,9.2c0.1,0,3.6,0.2,4.4,0.1c1.8-0.3,3.4-1.3,5.2-1.7c2.2-0.6,3.7-1.2,5.7-2c4.4-1.8,8.5-3.3,12.6-5.5
        c3-1.6,6-1.8,9.3-3.5c4.9-2.7,6.2-8,4-13.2c2.8,1,4,2,5.6,4.2c2.9,4.1,1.1,3.1-1.4,5.7c-2.1,2.1-1,0-1.8,3.4
        c-1.3,5.4-3.8,9.3-7.1,13.6c-4.8,6.4-8.7,12.7-11.4,20.1c-1.3,3.5-3.6,5.3-5.8,8.4c-2.6,3.6-1,6.3-2.6,10.1
        c8.4-0.2,16.8-0.3,25.2-0.5c5.8-0.1,11.6-0.2,17.4-0.3c1.4,0,8.1,0.8,9.1-0.2c0.8-0.7,0.1-5.5,0.1-6.5c0.1-5.7,0.1-11.5,0.2-17.2
        c0.1-9.6,0.7-19.3,0.3-28.9C242.8,351.1,240.7,345.3,236.5,336.8z M180,356.2c-5.9,0-5.9-9.2,0-9.2S185.9,356.2,180,356.2z
            M394,307.7c-11.1-11.4-27.7-16.2-43.4-16.8c-7.7-0.3-15.6-0.5-22.7,2.8c-7.8,3.5-15.9,7-23.3,11.3c-3.3,1.9-7.9,4.7-10.4,7.6
        c-2.5,2.9-2.8,7.3-5.2,10.4c4,2.5,5.6,2.9,10.2,1c3.2-1.3,6.2-3.5,9.1-5.2c3.8-2.3,6.5-4,10.9-4.9c5.8-1.2,7.6-1.1,5.9,5.3
        c-1.4,5.5-4.2,5.3-8.9,7.6c-3.4,1.7-6.4,3.8-9.1,6.4c-2.8,2.7-17.4,13.3-13.3,18.2c0.8,1,4.9,0.9,6.4,1.6c2.3,1.1,2.6,1.7,2.8,4.3
        c0.5,6.3-4.1,3.4-5.2-0.8c-2,3.2-2.6,7.1,2.2,8.5c1.1,0.3,6.1,0.4,7.1-0.4c2.5-1.7-0.4-2.9-0.8-5.7c-0.4-3.8,3.7-6.6,6.8-7.9
        c7.6-3.2,4.6,0.1,6.2,5.1c2.7,8.6,12.2,13.4,20.6,10c3.4-1.4,6.4-4.4,8.8-7.2c2-2.3,1.8-2.5,2.3-5.3c0.3-1.4-0.1-4.1,1.4-4.6
        c3.1-1.1,9.5,5.9,11.8,7.3c2.6,1.4,5.1,1,5.4,4.2c0.3,2.9-1.8,3.5-4.1,4.4c4,2,9.5-0.3,13.5-1.3c0-3-2.7-2.9-3.7-4.2
        c-0.4-0.5,0.1-1.9-0.6-3c-0.6-0.8-1.8-1.1-2.5-1.8c-3.1-3.2-5.7-5.3-9.9-7.4c-3.8-1.9-7.8-4.4-11.6-6.1c-1.8-0.8-4.1-1.1-6-1.2
        c-3.8-0.3-5,1.2-5.4-3.1c-0.5-5.5,1-7.4,6.3-7.2c5,0.2,8.9,1.3,13.2,3.7c3.8,2.1,7.2,4.5,10.1,7.7c1.5,1.7,3.5,3.7,4.4,5.7
        c0.9,2-0.6,3.6,2.2,4.6c6.5-5.3-4.9-14.2-8.7-17c-6.9-5.1-11.8-7.1-20.5-7.9c4-2.8,5.5-7.6,9-10.8c3.8-3.6,8.8-5.4,13.9-6
        c4.7-0.6,10-0.2,14.2,2c5.5,2.9,8.1,5.8,14.2,1.8C396.7,311.4,395.3,309.6,394,307.7z M340.3,346.3c5.9,0,5.9,9.2,0,9.2
        S334.3,346.3,340.3,346.3z"></path>
    <g class="bowlcut-153"><path d="M55.6 336.1L55.6 336.1L59.2 338.4L62.0 340.7L64.5 343.3L67.1 346.4L69.3 349.6L71.3 353.1L73.2 356.9L74.7 361.0L75.8 365.3L75.8 365.3L76.3 368.9L77.2 375.2L78.0 382.9L78.7 390.0L79.3 395.4L79.6 398.6L79.8 400.1L79.9 400.6L79.9 400.7L79.9 400.7L75.9 401.9L68.7 404.0L60.2 406.5L52.2 408.8L46.1 410.6L42.5 411.6L40.9 412.1L40.3 412.3L40.2 412.3L40.2 412.3L36.6 407.2L31.4 397.3L27.0 384.5L24.6 372.0L22.4 362.8L19.5 359.1L17.7 357.9L17.0 357.5L16.9 357.4L16.9 357.4L13.8 354.9L12.0 350.7L10.3 346.8L9.8 342.9L9.8 339.2L9.8 335.8L10.1 332.7L10.4 330.0L10.9 327.5L10.9 327.5L11.7 325.3L12.8 323.5L13.9 321.9L15.2 320.8L16.5 320.0L17.9 319.5L19.5 319.4L21.1 319.6L22.8 320.2L22.8 320.2L24.9 321.4L26.8 322.8L28.7 324.4L30.4 326.1L32.1 328.1L33.6 330.2L35.0 332.4L36.3 334.7L37.6 337.2L37.6 337.2L37.9 337.8L38.5 338.7L38.9 339.5L39.2 340.0L39.3 340.1L39.3 340.1L39.9 337.9L40.8 336.1L42.0 334.7L43.3 333.7L44.7 333.1L46.5 332.9L48.7 333.3L50.9 334.0L53.2 334.9M66.2 371.9L66.2 371.9L65.9 370.7L65.4 369.8L64.9 369.1L64.4 368.4L63.9 367.9L63.9 367.9L63.5 367.6L63.1 367.3L62.7 367.1L62.2 366.9L61.7 366.7L61.1 366.5L60.5 366.3L59.9 366.1L59.2 365.9L59.2 365.9L58.4 365.7L57.6 365.6L56.9 365.5L56.3 365.4L55.7 365.4L55.2 365.4L54.8 365.4L54.5 365.4L54.2 365.5L54.2 365.5L54.0 365.7L53.9 366.0L53.8 366.4L53.9 366.8L54.1 367.3L54.3 367.8L54.7 368.4L54.7 368.4L55.1 370.7L55.6 373.3L55.6 373.3L56.7 373.5L58.7 374.0L61.2 374.5L63.4 374.9L65.1 375.3L66.1 375.5L66.6 375.6L66.7 375.6L66.8 375.6L66.8 375.6L66.5 373.7M45.0 366.8L45.0 366.8L44.6 365.8L43.9 365.2L43.2 364.6L42.4 364.1L41.7 363.6L41.7 363.6L41.3 363.4L40.8 363.2L40.4 363.0L39.9 362.8L39.4 362.6L38.9 362.4L38.4 362.3L37.9 362.1L37.3 362.0L37.3 362.0L36.7 361.8L36.1 361.7L35.6 361.6L35.1 361.6L34.7 361.5L34.4 361.5L34.1 361.6L33.9 361.6L33.8 361.7L33.8 361.7L33.7 361.9L33.8 362.2L34.1 362.6L34.4 363.0L34.9 363.4L35.3 364.1L35.3 364.1L35.9 367.1L36.6 370.1L36.6 370.1L37.6 370.3L39.3 370.7L41.3 371.1L43.3 371.4L44.7 371.7L45.6 371.9L46.0 372.0L46.1 372.0L46.1 372.0L46.1 372.0L45.6 369.4ZM42.8 323.6L42.8 323.6L42.7 323.5L42.5 323.3L42.0 323.0L41.3 322.6L40.4 322.1L39.4 321.4L38.1 320.6L36.7 319.7L35.0 318.7L35.0 318.7L32.8 317.2L30.7 315.5L28.6 313.6L26.7 311.4L24.8 309.0L22.9 306.3L21.2 303.4L19.4 300.1L17.6 296.5L17.6 296.5L15.1 291.7L12.7 286.6L10.2 281.2L7.5 275.5L4.9 269.6L3.5 263.4L2.4 256.9L2.2 250.3L2.3 243.5L2.3 243.5L2.9 235.6L3.7 228.4L4.9 222.1L6.7 216.7L8.9 212.1L11.2 208.4L13.4 205.5L15.4 203.4L17.6 202.3L17.6 202.3L21.2 202.7L25.3 203.9L29.5 205.8L33.9 208.5L38.7 212.0L43.8 216.1L49.0 221.0L54.3 226.5L59.8 232.6L59.8 232.6L66.5 240.8L72.6 248.7L78.2 256.3L83.3 263.4L87.9 270.2L92.0 276.6L95.8 282.6L99.2 288.3L102.1 293.6L102.1 293.6L104.5 299.2L107.0 304.5L109.1 309.6L110.7 314.3L111.6 318.5L112.0 322.4L111.5 325.8L110.6 328.9L109.0 331.6L109.0 331.6L106.3 334.1L103.3 336.2L100.2 337.8L97.0 338.9L93.7 339.7L90.4 340.1L87.1 340.2L83.8 340.0L80.5 339.1L80.5 339.1L76.6 337.8L72.8 336.5L69.0 335.3L65.3 334.0L61.6 332.7L57.8 331.2L54.1 329.6L50.4 327.8L46.7 325.8M36.6 256.5L36.6 256.5L36.5 256.5L36.2 256.3L35.7 256.1L35.0 255.9L35.0 255.9L34.2 255.7L33.5 255.9L32.9 256.3L32.3 257.1L31.8 258.2L31.4 259.5L30.9 261.2L30.9 261.2L30.7 263.1L30.5 264.9L30.4 266.6L30.4 268.3L30.6 269.8L30.8 271.3L31.1 272.7L31.5 274.0L32.1 275.3L32.1 275.3L33.0 276.7L34.1 278.2L35.3 279.7L36.8 281.4L38.4 283.1L40.1 284.9L42.1 286.8L44.2 288.8L46.5 290.9L46.5 290.9L47.4 291.7L49.1 293.1L51.1 294.9L53.0 296.5L54.4 297.8L55.3 298.5L55.7 298.8L55.8 298.9L55.8 299.0L55.8 299.0L58.4 301.1L60.8 303.1L63.0 304.9L65.0 306.5L66.9 307.9L68.6 309.2L70.1 310.2L71.5 311.1L72.7 311.8L72.7 311.8L73.8 312.2L74.9 312.5L75.9 312.6L76.9 312.6L77.8 312.4L78.6 312.1L79.4 311.7L80.1 311.1L80.8 310.3L80.8 310.3L81.4 309.2L81.8 308.0L82.1 306.9L82.3 305.7L82.3 304.6L82.2 303.5L82.0 302.4L81.7 301.3L81.2 300.2L81.2 300.2L80.3 298.9L79.1 297.4L77.8 295.7L76.3 293.9L74.6 291.9L72.7 289.8L70.6 287.6L68.3 285.1L65.8 282.6L65.8 282.6L64.7 281.5L62.8 279.7L60.6 277.4L58.4 275.3L56.9 273.7L55.9 272.8L55.5 272.3L55.3 272.2L55.3 272.2L55.3 272.2L52.6 269.5L50.1 267.1L47.7 265.0L45.6 263.0L43.6 261.3L41.8 259.9L40.2 258.7L38.8 257.7L37.6 257.0ZM98.9 35.1L98.9 35.1L107.4 60.5L123.0 106.1L142.2 160.3L160.8 210.6L175.0 248.0L183.6 270.3L187.6 280.7L189.0 284.2L189.3 285.0L189.3 285.0L187.1 286.4L183.2 289.0L178.1 291.4L173.2 293.1L169.4 294.0L167.1 294.5L166.0 294.7L165.7 294.7L165.6 294.7L165.6 294.7L160.4 286.3L151.2 271.2L140.0 253.5L129.5 237.1L121.7 225.0L116.9 217.8L114.7 214.5L114.0 213.3L113.8 213.1L113.8 213.1L113.8 213.1L117.9 221.6L125.4 236.8L134.3 254.7L142.7 271.1L149.1 283.1L152.9 290.3L154.6 293.6L155.2 294.7L155.4 294.9L155.4 294.9L152.8 294.7L148.4 294.6L143.3 296.3L138.5 298.3L134.9 299.6L132.6 300.4L131.6 300.7L131.2 300.9L131.2 300.9L131.2 300.9L119.3 286.2L98.3 260.5L73.4 230.8L50.3 204.3L33.1 185.2L22.8 174.0L18.0 168.8L16.4 167.1L16.0 166.7L16.0 166.7L17.4 162.5L19.4 154.9L23.0 146.6L29.3 140.4L30.5 133.9L31.2 129.9L31.5 128.1L31.7 127.5L31.7 127.3L31.7 127.3L36.9 134.6L46.4 147.7L57.8 163.6L68.4 178.6L76.5 189.9L81.3 196.8L83.6 200.0L84.4 201.1L84.5 201.3L84.5 201.3L84.5 201.3L79.7 192.7L70.9 177.0L60.4 157.9L50.5 139.7L43.1 125.8L38.6 117.3L36.5 113.4L35.8 112.0L35.7 111.7L35.7 111.7L37.1 107.7L40.3 100.8L45.2 93.1L50.0 86.0L53.6 80.6L56.0 77.6L57.2 76.3L57.6 75.8L57.7 75.7L57.7 75.7L63.5 85.0L73.9 101.9L86.2 122.5L97.8 141.9L106.4 156.5L111.5 165.4L113.9 169.6L114.7 171.0L114.9 171.3L114.9 171.3L114.9 171.3L110.1 160.8L101.6 141.7L91.5 118.6L82.0 97.0L75.0 80.7L70.8 70.8L68.8 66.2L68.1 64.7L68.0 64.3L68.0 64.3L70.9 61.2L76.0 55.5L82.6 49.0L88.7 43.0L93.6 38.7L96.7 36.5L98.2 35.5L98.7 35.1L98.8 35.1ZM241.3 281.7L241.3 281.7L237.4 281.1L230.2 282.0L221.4 281.5L213.4 280.0L207.5 278.2L203.9 278.4L202.2 278.5L201.7 278.6L201.5 278.7L201.5 278.7L192.4 253.5L175.9 208.3L156.1 154.0L137.7 103.3L123.8 65.3L115.5 42.5L111.7 31.9L110.3 28.2L110.0 27.4L110.0 27.4L114.4 25.6L122.5 22.9L132.6 20.4L140.8 15.3L147.2 12.0L151.1 10.3L153.1 10.4L153.8 10.4L154.0 10.4L154.0 10.4L159.2 30.5L168.5 66.7L179.8 110.1L190.3 150.7L198.1 181.1L202.9 199.3L205.1 207.8L205.8 210.8L206.0 211.4L206.0 211.4L208.4 211.6L212.7 211.8L217.8 211.9L222.6 211.2L226.1 211.1L228.2 211.3L229.2 211.3L229.5 211.3L229.6 211.3L229.6 211.3L230.7 218.4L232.8 231.1L235.3 246.3L237.7 260.5L239.5 271.1L240.6 277.4L241.1 280.4L241.3 281.4L241.3 281.7ZM252.5 155.5L252.5 155.5L252.5 155.7L252.6 156.2L252.7 157.1L252.8 158.3L252.9 159.8L253.0 161.7L253.2 164.0L253.4 166.6L253.7 169.5L253.7 169.5L254.1 173.6L254.5 177.6L254.9 181.5L255.4 185.3L255.9 189.0L256.5 192.7L257.1 196.2L257.7 199.7L258.4 203.0L258.4 203.0L259.3 206.7L260.2 210.1L261.1 213.1L262.0 215.7L262.9 217.9L263.7 219.8L264.6 221.3L265.6 222.5L266.5 223.2L266.5 223.2L267.7 223.5L269.0 223.5L270.5 223.2L272.2 222.8L273.9 222.1L275.8 221.2L277.9 220.0L280.1 218.6L282.5 216.8L282.5 216.8L283.3 223.3L284.7 235.1L286.3 249.3L287.7 262.5L288.6 272.5L289.1 278.4L289.4 281.2L289.4 282.2L289.5 282.4L289.5 282.4L287.4 285.6L285.3 288.4L283.3 291.0L281.2 293.0L279.3 294.7L277.3 296.2L275.4 297.4L273.4 298.3L271.5 298.7L271.5 298.7L268.2 298.3L265.1 296.7L262.2 294.2L259.5 290.5L256.9 286.1L254.4 281.0L251.8 275.4L249.4 269.1L246.9 262.3L246.9 262.3L244.1 252.8L241.2 242.9L238.3 232.5L235.4 221.6L232.5 210.4L229.7 198.7L226.8 186.5L224.0 173.9L221.3 160.9L221.3 160.9L218.4 144.8L215.9 129.5L213.9 115.2L212.3 101.9L211.1 89.4L210.5 77.8L210.3 67.1L210.7 57.2L211.6 48.2L211.6 48.2L213.7 39.4L216.3 31.3L219.5 24.1L223.2 18.1L227.4 12.9L231.8 10.5L236.6 9.3L242.2 8.4L248.2 8.2L248.2 8.2L251.9 10.8L255.5 13.5L259.7 16.3L264.0 19.3L268.4 22.0L272.9 24.3L277.3 26.8L281.4 28.2L285.4 29.8L285.4 29.8L285.1 37.9L284.7 52.5L284.2 69.9L283.8 86.2L283.5 98.4L283.4 105.7L283.3 109.1L283.3 110.3L283.3 110.6L283.3 110.6L279.7 109.0L276.3 106.6L273.1 104.4L270.2 102.4L267.6 100.3L265.3 98.3L263.3 96.6L261.5 95.3L260.0 94.3L260.0 94.3L258.8 93.7L257.6 93.6L256.6 93.7L255.7 94.3L254.8 95.2L254.1 96.5L253.2 98.3L252.5 100.5L251.9 103.0L251.9 103.0L251.5 106.7L251.2 110.8L251.0 115.2L250.9 120.0L250.9 125.1L251.0 130.5L251.3 136.2L251.6 142.3L252.0 148.7ZM325.2 191.0L325.2 191.0L324.8 195.4L324.6 199.2L324.6 202.6L324.7 205.5L325.1 207.9L325.6 209.8L326.3 211.3L327.1 212.3L328.2 212.8L328.2 212.8L329.7 212.4L331.1 211.6L332.5 210.4L333.7 208.8L334.9 206.7L336.0 204.1L337.0 201.2L337.9 197.9L338.7 194.0L338.7 194.0L341.3 177.0L345.9 146.4L351.4 109.7L356.6 75.4L360.4 49.7L362.8 34.3L363.8 27.1L364.2 24.6L364.3 24.1L364.3 24.1L369.1 24.8L377.1 27.5L386.0 32.9L394.2 38.1L400.3 42.0L403.9 44.5L405.6 45.7L406.1 46.1L406.3 46.2L406.3 46.2L401.7 62.7L393.6 92.3L383.8 127.9L374.6 161.1L367.7 186.0L363.6 200.9L361.7 207.9L361.1 210.3L360.9 210.8L360.9 210.8L358.5 219.4L356.0 227.4L353.4 234.9L350.9 241.8L348.3 248.4L345.7 254.4L343.2 259.7L340.7 264.6L338.2 268.9L338.2 268.9L335.3 272.9L334.2 275.7L333.4 277.9L332.5 279.6L331.2 281.1L330.0 282.1L327.5 283.4L324.9 284.3L322.3 285.6L322.3 285.6L316.8 286.5L312.1 285.6L308.0 282.5L304.3 277.0L301.1 269.3L298.4 259.6L296.2 247.8L294.6 234.1L293.7 218.3L293.7 218.3L293.8 198.4L294.0 162.5L294.2 119.4L294.5 79.2L294.6 49.1L294.7 31.0L294.7 22.6L294.7 19.7L294.7 19.0L294.7 19.0L299.1 17.9L307.8 16.6L318.3 16.7L327.9 19.1L335.2 20.6L339.6 21.4L341.7 21.7L342.4 21.7L342.5 21.7L342.5 21.7L340.8 38.7L337.7 69.1L333.9 105.7L330.4 139.8L327.8 165.4L326.2 180.8L325.5 188.0L325.2 190.4L325.2 191.0ZM450.7 179.2L450.7 179.2L449.2 176.9L446.7 172.8L443.2 168.3L440.3 164.4L438.3 161.9L437.3 160.7L436.9 160.2L436.9 160.1L436.9 160.1L430.9 172.8L420.2 195.6L407.3 223.0L395.2 248.6L386.2 267.8L380.8 279.3L378.3 284.6L377.4 286.5L377.2 286.9L377.2 286.9L375.1 287.7L371.3 289.2L366.6 289.9L362.5 291.4L359.3 292.6L357.3 293.2L356.4 293.6L356.1 293.7L356.1 293.7L356.1 293.7L361.8 277.5L372.2 248.4L384.7 213.5L396.3 180.8L405.1 156.4L410.3 141.7L412.7 134.8L413.6 132.5L413.8 132.0L413.8 132.0L411.5 130.5L407.5 127.8L402.7 124.4L398.4 121.2L395.3 118.9L393.7 117.7L393.0 117.2L392.8 117.0L392.8 117.0L392.8 117.0L394.8 110.5L398.6 98.7L403.0 84.7L407.2 71.6L410.4 61.7L412.2 55.9L413.1 53.1L413.4 52.2L413.5 52.0L413.5 52.0L421.7 59.3L436.3 72.5L448.7 92.5L458.8 112.1L467.0 126.4L471.4 135.2L473.3 139.5L473.7 141.0L473.8 141.3L473.8 141.3L471.5 145.1L467.4 151.8L462.5 160.0L457.8 167.6L454.2 173.4L452.1 176.9L451.1 178.5L450.8 179.1L450.7 179.2ZM399.4 300.5L399.4 300.5L398.9 299.7L398.9 299.7L398.4 298.8L398.0 297.8L397.7 296.8L397.4 295.7L397.2 294.6L397.2 293.4L397.2 292.1L397.3 290.9L397.5 289.5L397.5 289.5L397.8 288.1L398.2 286.7L398.7 285.3L399.2 283.7L399.9 282.2L400.6 280.6L401.3 278.9L402.2 277.3L403.1 275.5L403.1 275.5L404.3 273.4L405.5 271.4L406.7 269.6L407.8 268.0L408.8 266.6L409.8 265.4L410.7 264.4L411.6 263.6L412.4 263.0L412.4 263.0L413.2 262.6L414.1 262.5L414.8 262.5L415.6 262.7L416.3 263.1L417.0 263.7L417.6 264.4L418.2 265.4L418.8 266.5L418.8 266.5L419.4 268.1L419.8 269.7L420.2 271.3L420.4 272.8L420.6 274.3L420.7 275.7L420.7 277.1L420.6 278.5L420.4 279.8L420.4 279.8L420.0 281.3L419.6 282.8L419.1 284.4L418.5 285.9L417.9 287.4L417.2 288.9L416.4 290.3L415.6 291.8L414.8 293.3L414.8 293.3L413.7 295.1L412.6 296.6L411.6 298.1L410.6 299.3L409.7 300.5L408.8 301.4L408.0 302.2L407.2 302.9L406.4 303.4L406.4 303.4L405.7 303.8L404.9 303.9L404.2 304.0L403.5 303.9L402.7 303.6L402.0 303.3L401.3 302.8L400.7 302.2L400.0 301.4ZM489.0 266.9L489.0 266.9L483.7 272.7L474.1 283.1L462.5 295.5L451.7 307.2L443.6 315.9L438.8 321.1L436.5 323.6L435.7 324.4L435.6 324.6L435.6 324.6L433.9 326.4L432.3 327.9L430.7 329.2L429.3 330.4L428.0 331.3L426.8 332.0L425.6 332.6L424.6 332.9L423.5 333.1L423.5 333.1L422.4 332.8L421.3 332.4L420.3 331.7L419.2 330.9L417.9 330.0L416.7 328.8L415.4 327.5L414.2 326.0L413.0 324.2L413.0 324.2L412.1 322.8L410.7 320.5L409.3 318.1L408.3 316.4L407.8 315.7L407.7 315.5L407.7 315.5L409.4 312.9L412.3 308.1L415.8 302.4L419.1 297.0L421.5 292.9L423.0 290.5L423.7 289.3L424.0 288.9L424.0 288.8L424.0 288.8L424.8 290.7L426.0 293.3L426.7 294.8L426.7 294.8L427.3 295.9L427.3 295.9L427.7 295.8L428.1 295.7L428.5 295.5L428.9 295.3L429.2 294.9L429.6 294.5L429.6 294.5L434.9 287.0L444.4 273.6L455.9 257.6L466.6 242.6L474.6 231.3L479.4 224.6L481.7 221.4L482.4 220.3L482.6 220.1L482.6 220.1L483.5 224.7L484.9 233.1L486.3 243.3L487.7 252.7L488.8 259.8L489.0 264.1L489.0 266.1L489.0 266.8L489.0 266.9ZM467.5 300.5L467.5 300.5L467.5 300.4L467.7 300.2L468.0 300.0L468.3 299.6L468.8 299.1L469.4 298.5L470.1 297.8L470.9 297.1L471.8 296.2L471.8 296.2L473.0 295.0L474.3 294.1L475.5 293.5L476.7 293.1L477.9 293.0L479.1 293.2L480.1 293.7L481.2 294.5L482.2 295.6L482.2 295.6L483.2 297.5L484.1 299.8L484.7 302.4L485.1 305.3L485.1 308.5L484.9 312.0L484.4 315.8L483.2 319.7L481.7 323.8L481.7 323.8L480.3 329.3L479.4 334.9L478.8 340.6L478.4 346.2L476.4 351.1L473.4 355.6L471.0 360.4L469.1 365.5L466.9 370.1L466.9 370.1L465.6 370.8L463.3 371.9L460.5 373.3L457.9 374.5L455.9 375.5L454.7 376.1L454.2 376.3L454.0 376.4L453.9 376.5L453.9 376.5L455.8 372.1L457.3 367.9L459.0 364.1L460.9 360.9L462.7 357.9L463.4 354.9L463.6 352.2L463.8 349.7L464.0 347.7L464.0 347.7L464.2 345.9L464.3 344.4L464.4 343.1L464.4 342.0L464.3 341.2L464.2 340.5L464.0 340.1L463.7 339.9L463.4 339.9L463.4 339.9L463.0 340.2L462.7 340.5L462.4 340.8L462.1 341.1L461.9 341.5L461.8 341.9L461.8 341.9L461.4 343.0L461.1 343.9L461.1 343.9L460.8 344.8L460.4 346.1L460.4 346.1L460.0 347.6L459.7 348.8L459.7 348.8L459.5 349.5L459.2 350.3L459.0 351.4L458.7 352.6L458.4 354.1L458.1 355.8L458.1 355.8L457.8 357.3L457.5 358.8L457.2 360.2L456.6 361.3L456.0 362.3L455.4 363.2L454.9 364.1L454.4 364.8L454.0 365.4L454.0 365.4L453.6 366.0L453.2 366.7L452.7 367.3L452.2 368.1L451.7 368.8L451.2 369.7L450.8 370.6L450.4 371.6L449.9 372.6L449.9 372.6L448.4 375.7L446.9 378.4L445.3 380.7L443.6 382.7L442.1 384.5L440.6 386.0L439.1 387.3L437.8 388.4L436.4 389.3L436.4 389.3L434.9 390.0L433.6 390.5L432.3 390.7L431.2 390.9L430.1 390.8L429.2 390.6L428.3 390.2L427.5 389.7L426.8 389.0L426.8 389.0L426.1 387.8L425.4 386.5L424.8 385.1L424.3 383.6L423.8 382.0L423.4 380.3L423.0 378.4L422.7 376.4L422.5 374.3L422.5 374.3L422.4 371.4L422.3 368.6L422.3 365.8L422.4 363.0L422.5 360.2L422.7 357.4L423.0 354.6L423.3 351.7L423.8 348.8L423.8 348.8L425.6 347.0L428.9 343.7L432.9 339.7L436.7 336.0L439.4 333.2L441.1 331.5L441.9 330.7L442.2 330.4L442.2 330.4L442.2 330.4L441.5 334.7L440.7 338.7L440.1 342.3L439.5 345.6L439.0 348.5L438.5 351.1L438.0 353.4L437.6 355.4L437.3 357.1L437.3 357.1L437.2 358.2L437.2 359.1L437.3 359.9L437.4 360.6L437.5 361.1L437.8 361.4L438.0 361.5L438.4 361.5L438.8 361.4L438.8 361.4L439.1 361.1L439.3 360.9L439.6 360.6L439.8 360.2L440.1 359.9L440.3 359.5L440.3 359.5L440.5 358.8L440.8 358.1L441.1 357.4L441.3 356.5L441.6 355.7L441.6 355.7L441.9 354.9L442.2 354.1L442.5 353.2L442.9 352.2L443.3 351.2L443.7 350.1L444.1 349.0L444.5 347.8L444.5 347.8L445.0 346.6L445.4 345.5L445.7 344.3L446.0 343.2L446.4 342.2L446.7 341.2L447.0 340.2L447.3 339.3L447.3 339.3L447.5 338.5L447.8 337.7L448.1 336.8L448.4 335.9L448.7 335.0L449.0 334.0L449.4 333.0L449.8 331.9L450.2 330.8L450.2 330.8L451.6 327.1L453.1 323.6L454.6 320.1L456.2 316.8L457.9 313.6L459.7 310.6L461.5 307.8L463.4 305.1L465.4 302.7Z" fill="#333333" stroke="none" stroke-width="6.05" stroke-linejoin="round" stroke-linecap="round"></path></g></svg>