<svg version="1.1" id="target" xmlns="http://www.w3.org/2000/svg" xmlns:xlink="http://www.w3.org/1999/xlink" x="0px" y="0px" width="500px" height="375px" viewBox="0 0 512 384" enable-background="new 0 0 512 384" xml:space="preserve">
    <g class="bowlcut-24c"><path d="M118.280 149.154L118.280 149.154L117.278 150.199L116.819 151.252L116.819 151.252L116.946 152.201L117.266 153.136L117.774 154.055L117.774 154.055L118.887 153.354L120.695 152.237L122.373 151.224L123.324 150.657L123.600 150.493L123.600 150.493L122.992 149.699L122.992 149.699L122.104 148.797L121.165 148.311L120.173 148.241L119.128 148.586M106.018 170.018L106.018 170.018L105.874 169.874L105.440 169.440L104.718 168.718L103.707 167.707L103.707 167.707L103.019 166.985L102.399 166.215L101.841 165.404L101.343 164.552L100.908 163.657L100.536 162.719L100.227 161.737L99.982 160.712L99.801 159.641L99.687 158.527L99.645 157.374L99.670 156.176L99.670 156.176L99.815 154.979L100.030 153.786L100.322 152.610L100.683 151.438L101.111 150.272L101.616 149.121L102.191 147.981L102.834 146.848L103.553 145.733L104.343 144.631L105.199 143.538L106.135 142.470L107.136 141.413L108.209 140.374L109.355 139.359L109.355 139.359L110.825 138.191L112.268 137.126L113.673 136.149L115.048 135.275L116.380 134.485L117.680 133.796L118.938 133.195L120.151 132.680L121.328 132.264L122.459 131.931L123.542 131.683L124.587 131.529L125.584 131.460L126.534 131.473L126.534 131.473L127.567 131.590L128.572 131.787L129.546 132.061L130.487 132.408L131.395 132.828L132.271 133.321L133.115 133.887L133.928 134.524L134.710 135.234L135.463 136.018L136.186 136.871L136.879 137.794L136.879 137.794L137.311 138.462L137.754 139.176L138.208 139.935L138.675 140.740L139.154 141.590L139.646 142.486L140.150 143.426L140.667 144.411L141.198 145.443L141.742 146.520L141.742 146.520L140.687 147.234L138.699 148.591L136.074 150.440L133.192 152.542L130.425 154.634L128.053 156.483L126.223 157.943L124.960 158.983L124.171 159.633L123.731 159.995L123.518 160.175L123.428 160.252L123.395 160.279L123.386 160.288L123.383 160.290L123.383 160.290L123.383 160.290L123.383 160.290L123.383 160.290L124.253 161.031L125.168 161.523L126.127 161.770L127.128 161.770L128.171 161.524L129.262 161.035L130.406 160.309L130.406 160.309L130.871 159.927L131.415 159.449L132.045 158.885L132.755 158.227L133.546 157.474L134.426 156.637L135.392 155.709L136.445 154.693L137.593 153.596L138.831 152.412L140.168 151.149L140.168 151.149L140.902 151.839L142.234 153.098L143.868 154.656L145.453 156.182L146.716 157.409L147.549 158.222L147.996 158.660L148.186 158.846L148.246 158.905L148.259 158.918L148.260 158.919L148.260 158.919L147.398 159.867L146.544 160.803L145.692 161.714L144.844 162.604L144.001 163.478L143.157 164.326L142.320 165.160L141.482 165.971L140.644 166.760L139.811 167.535L138.975 168.284L138.141 169.016L137.308 169.729L136.470 170.418L136.470 170.418L135.385 171.269L134.307 172.057L133.241 172.789L132.184 173.462L131.131 174.074L130.090 174.633L129.051 175.128L128.017 175.565L126.989 175.946L125.960 176.263L124.934 176.521L123.913 176.722L122.890 176.860L121.865 176.935L120.845 176.954L120.845 176.954L119.888 176.911L118.936 176.819L117.989 176.678L117.047 176.487L116.115 176.252L115.190 175.968L114.270 175.633L113.355 175.247L112.447 174.811L111.545 174.323L110.650 173.784L109.761 173.192L108.880 172.549L108.007 171.852L107.143 171.103L106.293 170.293ZM157.769 121.336L157.769 121.336L157.537 120.350L157.122 118.567L156.632 116.415L156.179 114.382L155.838 112.829L155.630 111.872L155.530 111.408L155.494 111.239L155.485 111.197L155.484 111.191L155.484 111.191L156.765 110.576L159.176 109.454L162.338 108.029L165.753 106.554L168.932 105.239L171.517 104.208L173.363 103.495L174.513 103.059L175.135 102.830L175.421 102.724L175.531 102.684L175.565 102.672L175.573 102.669L175.574 102.668L175.575 102.668L175.575 102.668L175.461 103.715L175.255 105.707L175.001 108.420L174.742 111.517L174.511 114.648L174.335 117.524L174.209 119.920L174.125 121.749L174.074 123.032L174.045 123.853L174.030 124.329L174.022 124.579L174.018 124.696L174.017 124.745L174.016 124.763L174.016 124.769L174.016 124.770L174.016 124.770L174.016 124.770L174.016 124.770L174.016 124.770L174.016 124.770L174.795 125.458L176.271 126.776L178.253 128.582L180.482 130.653L182.704 132.767L184.700 134.710L186.334 136.329L187.561 137.565L188.403 138.424L188.930 138.965L189.229 139.273L189.381 139.431L189.451 139.503L189.479 139.532L189.489 139.542L189.492 139.545L189.492 139.546L189.492 139.546L189.492 139.546L189.492 139.546L189.492 139.546L188.385 139.954L186.320 140.745L183.627 141.814L180.733 143.016L178.046 144.182L175.852 145.170L174.267 145.900L173.262 146.380L172.702 146.649L172.433 146.778L172.324 146.831L172.287 146.848L172.277 146.853L172.276 146.854L172.275 146.854L172.275 146.854L171.634 146.075L170.474 144.676L169.074 143.004L167.761 141.453L166.771 140.293L166.174 139.599L165.896 139.275L165.800 139.165L165.779 139.140L165.779 139.140L165.779 139.140L165.961 140.137L166.296 141.930L166.709 144.080L167.107 146.089L167.415 147.601L167.604 148.512L167.693 148.940L167.724 149.088L167.731 149.122L167.732 149.126L167.732 149.126L166.685 149.670L164.738 150.708L162.212 152.096L159.524 153.628L157.057 155.086L155.071 156.293L153.666 157.171L152.790 157.721L152.320 158.026L152.102 158.167L152.018 158.221L151.992 158.238L151.985 158.242L151.984 158.243L151.984 158.243L151.984 158.243L151.830 157.229L151.546 155.294L151.191 152.679L150.814 149.690L150.471 146.678L150.191 143.947L149.979 141.691L149.833 139.998L149.742 138.844L149.688 138.129L149.658 137.730L149.643 137.530L149.637 137.441L149.634 137.406L149.633 137.395L149.633 137.392L149.633 137.391L149.633 137.391L149.633 137.391L149.633 137.391L149.633 137.391L149.370 137.208L148.967 136.924L148.423 136.540L147.737 136.056L146.908 135.474L145.938 134.800L144.821 134.031L143.557 133.168L142.142 132.212L142.142 132.212L140.975 131.431L139.852 130.690L138.779 129.992L137.751 129.330L136.770 128.705L135.835 128.116L134.948 127.562L134.109 127.043L133.318 126.559L132.579 126.114L131.890 125.703L131.251 125.327L131.251 125.327L132.428 124.535L134.652 123.074L137.601 121.193L140.832 119.201L143.900 117.379L146.462 115.908L148.349 114.849L149.575 114.176L150.269 113.795L150.610 113.608L150.752 113.530L150.802 113.503L150.815 113.496L150.818 113.495L150.819 113.494L150.819 113.494L150.819 113.494L151.454 114.283L152.597 115.707L153.969 117.430L155.255 119.057L156.230 120.298L156.826 121.060L157.113 121.428L157.216 121.561L157.242 121.593L157.245 121.598L157.245 121.598ZM222.160 101.521L222.160 101.521L222.279 102.514L222.501 104.380L222.796 106.838L223.120 109.517L223.429 112.052L223.689 114.170L223.882 115.740L224.009 116.772L224.083 117.368L224.120 117.668L224.136 117.798L224.142 117.844L224.144 117.858L224.144 117.861L224.144 117.862L224.144 117.862L224.144 117.862L224.594 118.846L224.594 118.846L225.664 119.121L226.852 119.228L228.161 119.176L228.161 119.176L228.193 120.177L228.252 121.996L228.330 124.228L228.411 126.392L228.479 128.114L228.525 129.241L228.550 129.838L228.560 130.085L228.564 130.161L228.564 130.177L228.564 130.177L226.955 130.522L225.537 130.827L224.311 131.096L223.274 131.314L222.427 131.491L222.427 131.491L221.004 131.711L219.662 131.843L218.400 131.893L217.215 131.849L216.108 131.722L215.076 131.502L214.118 131.185L213.235 130.779L212.427 130.281L212.427 130.281L212.427 130.281L211.620 131.093L210.774 131.849L209.893 132.562L208.972 133.218L208.010 133.820L207.011 134.380L205.970 134.883L204.887 135.340L203.763 135.750L203.763 135.750L202.362 136.117L201.031 136.413L199.761 136.620L198.555 136.753L197.411 136.798L196.325 136.755L195.301 136.634L194.334 136.423L193.425 136.120L193.425 136.120L192.514 135.642L191.659 135.108L190.857 134.512L190.109 133.854L189.415 133.134L188.776 132.351L188.194 131.506L187.668 130.599L187.201 129.629L187.201 129.629L186.788 128.396L186.469 127.206L186.247 126.062L186.121 124.964L186.092 123.911L186.162 122.901L186.330 121.936L186.598 121.015L186.964 120.138L187.432 119.306L188.001 118.528L188.001 118.528L188.699 117.841L189.461 117.159L190.287 116.486L191.180 115.828L192.137 115.175L193.159 114.532L194.247 113.907L195.399 113.289L196.618 112.689L197.902 112.104L199.250 111.530L200.666 110.983L202.144 110.444L203.690 109.937L203.690 109.937L203.592 108.937L203.592 108.937L203.107 107.830L202.247 107.369L202.247 107.369L201.381 107.579L200.459 107.848L199.478 108.163L198.439 108.524L197.346 108.944L196.197 109.416L194.992 109.934L193.738 110.519L192.429 111.152L191.070 111.845L189.661 112.596L188.204 113.403L186.701 114.274L186.701 114.274L186.118 113.438L185.035 111.895L183.648 109.944L182.208 107.945L180.945 106.212L179.999 104.926L179.397 104.112L179.074 103.677L178.932 103.486L178.882 103.419L178.869 103.402L178.867 103.399L178.867 103.398L178.867 103.398L180.279 102.582L181.680 101.794L183.072 101.048L184.448 100.325L185.816 99.646L187.168 98.993L188.506 98.373L189.832 97.788L191.139 97.227L192.436 96.708L193.714 96.215L194.975 95.749L196.221 95.322L197.448 94.919L198.658 94.546L199.851 94.208L201.023 93.892L201.023 93.892L202.927 93.462L204.733 93.108L206.441 92.838L208.047 92.642L209.551 92.521L210.953 92.476L212.250 92.494L213.444 92.588L214.533 92.750L215.515 92.972L216.392 93.257L216.392 93.257L217.343 93.761L218.210 94.341L218.994 94.995L219.694 95.724L220.311 96.527L220.846 97.406L221.300 98.363L221.674 99.393L221.967 100.495M205.379 124.344L205.379 124.344L206.505 123.873L207.181 123.148L207.406 122.162L207.406 122.162L207.190 121.185L206.867 119.724L206.628 118.636L206.628 118.636L205.107 119.186L203.957 119.835L203.180 120.578L202.772 121.405L202.732 122.317L202.732 122.317L203.220 123.520L203.921 124.225L204.832 124.431ZM289.087 89.679L289.087 89.679L290.666 89.954L292.137 90.289L293.497 90.704L294.747 91.181L295.885 91.718L296.909 92.331L297.821 93.000L298.621 93.727L299.308 94.515L299.881 95.367L300.341 96.275L300.690 97.238L300.928 98.257L301.056 99.332L301.074 100.462L300.984 101.650L300.787 102.893L300.787 102.893L300.585 103.873L300.195 105.765L299.649 108.410L298.996 111.577L298.291 114.996L297.588 118.401L296.936 121.562L296.369 124.314L295.904 126.566L295.546 128.302L295.286 129.562L295.109 130.422L294.995 130.972L294.927 131.303L294.889 131.488L294.869 131.585L294.859 131.632L294.855 131.653L294.853 131.661L294.852 131.665L294.852 131.666L294.852 131.666L294.852 131.666L294.852 131.666L294.852 131.666L294.852 131.666L294.852 131.666L294.852 131.666L294.852 131.666L294.852 131.666L293.695 131.437L291.531 131.017L288.707 130.510L285.679 130.015L282.888 129.600L280.641 129.300L279.056 129.105L278.081 128.990L277.564 128.930L277.331 128.902L277.244 128.892L277.218 128.889L277.212 128.888L277.211 128.888L277.211 128.888L277.211 128.888L277.321 127.894L277.533 125.984L277.826 123.344L278.171 120.238L278.535 116.964L278.885 113.806L279.198 110.988L279.457 108.651L279.657 106.847L279.801 105.550L279.898 104.683L279.957 104.145L279.992 103.836L280.010 103.673L280.018 103.594L280.022 103.560L280.024 103.546L280.024 103.541L280.025 103.540L280.025 103.539L280.025 103.539L280.025 103.539L280.025 103.539L280.025 103.539L280.025 103.539L280.025 103.539L279.780 102.444L279.780 102.444L278.483 102.254L277.172 102.234L275.849 102.394L275.849 102.394L275.731 103.387L275.504 105.298L275.191 107.946L274.824 111.073L274.438 114.386L274.066 117.604L273.733 120.501L273.455 122.928L273.240 124.825L273.083 126.211L272.976 127.154L272.909 127.751L272.869 128.102L272.848 128.293L272.837 128.389L272.832 128.432L272.830 128.450L272.830 128.457L272.829 128.459L272.829 128.460L272.829 128.460L272.829 128.460L272.829 128.460L272.829 128.460L272.829 128.460L272.829 128.460L272.829 128.460L271.654 128.359L269.456 128.195L266.592 128.017L263.528 127.873L260.708 127.784L258.440 127.740L256.843 127.727L255.862 127.722L255.341 127.726L255.106 127.728L255.019 127.728L254.993 127.729L254.987 127.729L254.986 127.729L254.986 127.729L254.986 127.729L254.981 126.729L254.970 124.807L254.956 122.151L254.940 119.026L254.923 115.732L254.906 112.555L254.891 109.720L254.879 107.369L254.869 105.554L254.862 104.249L254.857 103.376L254.855 102.835L254.853 102.525L254.852 102.361L254.852 102.281L254.851 102.247L254.851 102.233L254.851 102.228L254.851 102.226L254.851 102.226L254.851 102.226L254.851 102.226L254.851 102.226L254.851 102.226L254.851 102.226L254.851 102.226L254.474 101.185L254.474 101.185L253.070 101.129L251.743 101.252L250.497 101.547L250.497 101.547L250.493 102.547L250.488 104.471L250.482 107.137L250.478 110.285L250.476 113.621L250.476 116.862L250.479 119.779L250.484 122.224L250.488 124.136L250.492 125.533L250.495 126.484L250.497 127.086L250.498 127.441L250.499 127.634L250.499 127.730L250.499 127.774L250.499 127.793L250.499 127.799L250.499 127.802L250.499 127.802L250.499 127.802L250.499 127.803L250.499 127.803L250.499 127.803L250.499 127.803L250.499 127.803L250.499 127.803L249.320 127.840L247.120 127.926L244.264 128.079L241.224 128.288L238.446 128.522L236.232 128.739L234.688 128.900L233.753 129.010L233.264 129.067L233.049 129.093L232.971 129.102L232.948 129.105L232.944 129.105L232.943 129.105L232.943 129.105L232.823 128.113L232.589 126.177L232.256 123.422L231.847 120.028L231.386 116.215L230.904 112.221L230.426 108.271L229.978 104.558L229.576 101.229L229.231 98.375L228.948 96.032L228.726 94.190L228.558 92.801L228.437 91.800L228.353 91.108L228.298 90.650L228.263 90.362L228.242 90.188L228.230 90.089L228.224 90.034L228.220 90.006L228.219 89.993L228.218 89.986L228.218 89.983L228.218 89.982L228.217 89.982L228.217 89.982L228.217 89.982L228.217 89.982L228.217 89.982L228.217 89.982L228.217 89.982L228.217 89.982L228.217 89.982L228.217 89.982L228.217 89.982L228.217 89.982L228.217 89.982L228.217 89.982L228.217 89.982L229.629 89.816L232.248 89.534L235.601 89.214L239.087 88.934L242.163 88.729L244.494 88.601L246.012 88.533L246.851 88.500L247.238 88.485L247.383 88.479L247.425 88.478L247.434 88.477L247.435 88.477L247.435 88.477L247.707 89.453L248.037 90.651L248.037 90.651L249.265 90.063L250.516 89.537L251.790 89.063L253.087 88.651L254.406 88.299L255.746 87.999L257.106 87.769L258.484 87.593L259.881 87.474L261.295 87.424L262.726 87.427L262.726 87.427L264.387 87.527L265.939 87.719L267.383 88.002L268.714 88.382L269.935 88.845L271.042 89.397L272.036 90.040L272.916 90.762L273.682 91.564L273.682 91.564L274.997 91.075L276.321 90.646L277.654 90.272L278.994 89.973L280.341 89.731L281.695 89.548L283.052 89.438L284.414 89.383L285.779 89.393L287.146 89.470L288.514 89.602ZM322.385 140.378L322.385 140.378L321.328 139.948L320.293 139.455L319.280 138.896L318.289 138.264L317.314 137.573L317.314 137.573L316.951 138.506L316.290 140.208L315.474 142.314L314.674 144.386L314.026 146.069L313.589 147.204L313.348 147.833L313.242 148.111L313.206 148.205L313.197 148.227L313.196 148.230L313.196 148.230L312.142 147.879L310.166 147.253L307.591 146.469L304.834 145.676L302.301 144.989L300.273 144.466L298.855 144.115L297.993 143.906L297.542 143.802L297.343 143.756L297.271 143.740L297.250 143.735L297.246 143.734L297.245 143.734L297.245 143.734L297.473 142.760L297.920 140.851L298.563 138.100L299.371 134.649L300.300 130.677L301.306 126.380L302.340 121.960L303.359 117.607L304.324 113.482L305.206 109.714L305.984 106.386L306.649 103.544L307.199 101.194L307.640 99.312L307.981 97.853L308.237 96.758L308.424 95.961L308.555 95.400L308.644 95.019L308.703 94.768L308.740 94.608L308.763 94.510L308.777 94.452L308.784 94.419L308.789 94.401L308.791 94.392L308.792 94.387L308.793 94.385L308.793 94.384L308.793 94.383L308.793 94.383L308.793 94.383L308.793 94.383L308.793 94.383L308.793 94.383L308.793 94.383L308.793 94.383L308.793 94.383L308.793 94.383L308.793 94.383L308.793 94.383L308.793 94.383L308.793 94.383L308.793 94.383L308.793 94.383L308.793 94.383L308.793 94.383L308.793 94.383L308.793 94.383L308.793 94.383L308.793 94.383L310.178 94.704L312.715 95.331L315.894 96.156L319.091 97.033L321.782 97.809L323.698 98.380L324.843 98.733L325.408 98.912L325.632 98.982L325.699 99.004L325.714 99.008L325.715 99.008L325.715 99.008L325.837 100.046L325.837 100.046L327.118 100.009L328.423 100.048L329.752 100.155L331.107 100.325L332.481 100.576L333.879 100.892L335.297 101.278L336.732 101.742L336.732 101.742L338.469 102.413L340.079 103.125L341.572 103.852L342.938 104.618L344.185 105.397L345.308 106.199L346.308 107.022L347.188 107.856L347.945 108.708L348.579 109.578L349.094 110.457L349.489 111.346L349.489 111.346L349.686 112.126L349.833 112.937L349.930 113.775L349.978 114.639L349.977 115.529L349.927 116.444L349.830 117.385L349.683 118.352L349.489 119.345L349.247 120.365L348.957 121.410L348.620 122.482L348.236 123.580L347.805 124.705L347.329 125.856L346.806 127.035L346.806 127.035L346.225 128.239L345.640 129.392L345.051 130.494L344.459 131.544L343.863 132.544L343.265 133.493L342.663 134.391L342.060 135.239L341.454 136.037L340.847 136.784L340.238 137.481L339.627 138.128L339.014 138.725L338.401 139.272L337.786 139.769L337.169 140.216L336.549 140.619L336.549 140.619L335.689 141.079L334.791 141.454L333.854 141.744L332.878 141.950L331.858 142.083L330.799 142.131L329.701 142.095L328.555 141.990L327.369 141.801L326.137 141.535L324.858 141.197L323.534 140.778M322.730 128.091L322.730 128.091L323.868 128.255L324.833 127.891L324.833 127.891L325.301 127.225L325.762 126.491L326.217 125.686L326.667 124.810L327.110 123.863L327.547 122.845L327.976 121.755L327.976 121.755L328.444 120.440L328.847 119.237L329.185 118.147L329.459 117.170L329.668 116.305L329.813 115.552L329.892 114.912L329.892 114.912L329.762 113.669L329.212 112.748L328.245 112.149L328.245 112.149L327.089 111.869L325.718 111.777L325.718 111.777L325.368 112.714L324.712 114.472L323.852 116.782L322.921 119.288L322.049 121.641L321.329 123.588L320.804 125.012L320.465 125.932L320.273 126.451L320.180 126.706L320.141 126.811L320.128 126.848L320.124 126.858L320.123 126.860L320.123 126.860L320.123 126.860L320.123 126.860L321.305 127.488L322.395 127.966ZM346.012 138.571L346.012 138.571L346.457 137.675L347.325 135.925L348.566 133.424L350.104 130.324L351.846 126.813L353.690 123.096L355.538 119.370L357.303 115.814L358.915 112.565L360.327 109.719L361.515 107.324L362.475 105.388L363.223 103.882L363.781 102.755L364.183 101.946L364.460 101.387L364.644 101.016L364.761 100.781L364.832 100.637L364.874 100.554L364.897 100.508L364.909 100.483L364.915 100.470L364.918 100.464L364.919 100.462L364.920 100.461L364.920 100.460L364.920 100.460L364.920 100.460L364.920 100.460L364.920 100.460L364.920 100.460L364.920 100.460L364.920 100.460L364.920 100.460L364.920 100.460L364.920 100.460L364.920 100.460L364.920 100.460L364.920 100.460L364.920 100.460L364.920 100.460L364.920 100.460L366.265 101.132L368.760 102.409L371.972 104.105L375.353 105.958L378.405 107.689L380.807 109.088L382.451 110.079L383.436 110.673L383.941 110.978L384.158 111.111L384.234 111.159L384.255 111.172L384.259 111.175L384.260 111.175L384.260 111.175L383.736 112.027L382.716 113.688L381.266 116.050L379.481 118.956L377.480 122.214L375.389 125.618L373.327 128.975L371.396 132.119L369.673 134.925L368.202 137.319L367.003 139.272L366.065 140.799L365.364 141.940L364.862 142.757L364.519 143.316L364.295 143.681L364.155 143.909L364.071 144.045L364.024 144.121L363.999 144.162L363.986 144.183L363.980 144.193L363.977 144.198L363.976 144.200L363.976 144.200L363.976 144.201L363.975 144.201L363.975 144.201L363.975 144.201L363.975 144.201L363.975 144.201L363.975 144.201L363.975 144.201L363.975 144.201L363.975 144.201L363.975 144.201L363.975 144.201L363.975 144.201L363.975 144.201L363.643 145.148L363.818 146.079L364.497 146.992L364.497 146.992L363.971 147.842L363.000 149.409L361.773 151.390L360.523 153.407L359.451 155.136L358.670 156.395L358.189 157.171L357.942 157.570L357.839 157.736L357.805 157.790L357.797 157.803L357.796 157.805L357.796 157.805L356.800 157.182L355.137 156.163L353.483 155.166L352.392 154.531L351.956 154.277L351.956 154.277L350.788 153.558L349.716 152.833L348.748 152.083L347.878 151.318L347.108 150.532L346.441 149.719L345.870 148.888L345.400 148.032L345.032 147.147L344.766 146.234L344.598 145.297L344.532 144.333L344.570 143.341L344.711 142.319L344.957 141.269L345.309 140.190L345.767 139.084ZM394.995 150.196L394.995 150.196L393.772 149.423L392.648 149.188L392.648 149.188L391.744 149.509L390.895 150.012L390.100 150.697L390.100 150.697L391.016 151.642L392.473 153.190L393.808 154.627L394.554 155.445L394.770 155.682L394.770 155.682L395.423 154.925L395.423 154.925L396.124 153.870L396.409 152.850L396.276 151.862L395.725 150.908M372.078 142.428L372.078 142.428L372.190 142.257L372.525 141.744L373.084 140.889L373.867 139.692L373.867 139.692L374.442 138.876L375.069 138.111L375.750 137.396L376.484 136.733L377.270 136.124L378.111 135.569L379.008 135.066L379.961 134.617L380.970 134.223L382.037 133.883L383.159 133.603L384.335 133.385L384.335 133.385L385.535 133.284L386.744 133.252L387.958 133.295L389.176 133.411L390.402 133.595L391.634 133.851L392.864 134.184L394.102 134.586L395.342 135.059L396.579 135.611L397.821 136.230L399.059 136.925L400.295 137.694L401.532 138.531L402.756 139.450L402.756 139.450L404.199 140.651L405.533 141.850L406.774 143.028L407.910 144.197L408.951 145.345L409.893 146.475L410.736 147.586L411.486 148.670L412.135 149.737L412.689 150.779L413.152 151.791L413.519 152.779L413.789 153.744L413.968 154.678L413.968 154.678L414.064 155.716L414.080 156.736L414.011 157.746L413.863 158.740L413.636 159.716L413.332 160.675L412.951 161.618L412.493 162.544L411.958 163.455L411.348 164.351L410.662 165.232L409.901 166.099L409.901 166.099L409.336 166.658L408.728 167.238L408.078 167.839L407.385 168.461L406.651 169.105L405.875 169.770L405.057 170.456L404.198 171.165L403.297 171.896L402.356 172.649L402.356 172.649L401.444 171.759L399.708 170.090L397.365 167.896L394.722 165.501L392.112 163.215L389.820 161.267L388.019 159.773L386.747 158.744L385.952 158.101L385.505 157.748L385.286 157.576L385.193 157.503L385.159 157.476L385.149 157.469L385.146 157.467L385.146 157.466L385.146 157.466L385.146 157.466L385.146 157.466L384.599 158.471L384.306 159.466L384.261 160.454L384.464 161.437L384.916 162.411L385.618 163.377L386.559 164.353L386.559 164.353L387.027 164.732L387.605 165.169L388.288 165.667L389.075 166.231L389.970 166.854L390.971 167.543L392.073 168.302L393.284 169.124L394.588 170.028L396.002 170.997L397.507 172.052L397.507 172.052L396.981 172.912L396.021 174.475L394.833 176.391L393.665 178.254L392.723 179.743L392.098 180.725L391.760 181.253L391.617 181.477L391.571 181.547L391.561 181.563L391.560 181.564L391.560 181.564L390.456 180.914L389.366 180.269L388.303 179.619L387.257 178.972L386.232 178.322L385.230 177.669L384.243 177.019L383.281 176.362L382.336 175.704L381.411 175.044L380.509 174.376L379.621 173.710L378.755 173.037L377.910 172.356L377.910 172.356L376.857 171.466L375.869 170.568L374.934 169.675L374.061 168.774L373.246 167.870L372.489 166.962L371.794 166.042L371.153 165.121L370.573 164.189L370.055 163.243L369.590 162.295L369.186 161.333L368.843 160.358L368.559 159.371L368.332 158.375L368.332 158.375L368.180 157.428L368.076 156.475L368.021 155.517L368.013 154.559L368.052 153.599L368.142 152.633L368.282 151.662L368.473 150.687L368.715 149.708L369.008 148.724L369.353 147.736L369.750 146.745L370.198 145.753L370.700 144.757L371.256 143.757L371.867 142.755Z" fill="#ff0000" stroke="#00ccff" stroke-width="1.6" stroke-linejoin="round" stroke-linecap="round"></path><path d="M221.161 253.795L221.161 253.795L221.185 254.639L221.256 255.419L221.375 256.136L221.542 256.789L221.757 257.379L221.757 257.379L222.164 258.082L222.672 258.687L223.282 259.191L223.993 259.595L223.993 259.595L223.993 259.595L224.164 260.293L224.164 260.293L224.154 261.153L224.084 261.977L223.956 262.766L223.768 263.520L223.522 264.239L223.217 264.923L222.852 265.572L222.429 266.187L221.947 266.769L221.406 267.318L221.406 267.318L220.637 267.905L219.841 268.443L219.019 268.934L218.171 269.377L217.297 269.770L216.396 270.117L215.469 270.415L214.516 270.663L213.536 270.865L212.530 271.017L212.530 271.017L211.371 271.114L210.264 271.163L209.211 271.160L208.210 271.109L207.262 271.004L206.367 270.848L205.525 270.640L204.736 270.378L203.999 270.062L203.999 270.062L203.319 269.644L202.695 269.188L202.128 268.692L201.617 268.157L201.162 267.585L200.763 266.974L200.420 266.325L200.133 265.637L199.903 264.910L199.729 264.145L199.611 263.342L199.549 262.502L199.549 262.502L199.548 261.744L199.547 260.330L199.545 258.498L199.544 256.554L199.542 254.785L199.541 253.383L199.540 252.415L199.539 251.836L199.539 251.539L199.539 251.410L199.539 251.365L199.539 251.353L199.539 251.350L199.539 251.350L199.539 251.350L199.420 250.366L199.064 249.684L198.471 249.305L198.471 249.305L197.219 249.360L196.517 249.579L196.517 249.579L196.633 250.330L196.828 251.606L197.033 252.943L197.183 253.920L197.258 254.407L197.281 254.553L197.281 254.553L197.281 255.316L197.281 256.690L197.282 258.341L197.282 259.885L197.283 261.047L197.283 261.747L197.283 262.076L197.283 262.190L197.283 262.216L197.283 262.219L197.283 262.219L197.305 263.166L197.369 264.058L197.476 264.895L197.626 265.677L197.819 266.402L198.055 267.072L198.334 267.685L198.656 268.243L199.021 268.744L199.021 268.744L198.400 269.416L197.719 270.048L196.979 270.639L196.180 271.192L195.322 271.708L194.405 272.185L194.405 272.185L193.410 272.623L192.423 273.018L191.444 273.364L190.474 273.666L189.513 273.920L188.559 274.126L188.559 274.126L187.337 274.301L186.184 274.415L185.102 274.474L184.091 274.473L183.150 274.411L182.279 274.290L181.478 274.105L180.748 273.859L180.089 273.552L180.089 273.552L179.472 273.157L178.915 272.702L178.418 272.186L177.981 271.611L177.604 270.975L177.286 270.278L177.029 269.521L176.832 268.704L176.694 267.827L176.617 266.890L176.617 266.890L176.616 266.075L176.613 264.543L176.611 262.523L176.607 260.318L176.605 258.229L176.602 256.480L176.600 255.180L176.599 254.323L176.598 253.825L176.598 253.573L176.598 253.463L176.598 253.423L176.598 253.412L176.598 253.409L176.598 253.408L176.598 253.408L176.598 253.408L176.479 252.354L176.123 251.628L175.529 251.234L175.529 251.234L174.278 251.321L173.576 251.573L173.576 251.573L173.691 252.380L173.887 253.750L174.092 255.185L174.242 256.235L174.317 256.758L174.340 256.914L174.340 256.914L174.340 257.736L174.340 259.240L174.341 261.114L174.341 262.975L174.341 264.512L174.342 265.573L174.342 266.180L174.342 266.462L174.342 266.563L174.342 266.590L174.342 266.594L174.342 266.594L174.363 267.603L174.425 268.544L174.529 269.417L174.674 270.223L174.861 270.960L175.090 271.628L175.360 272.227L175.360 272.227L174.737 272.954L174.072 273.641L173.363 274.290L172.612 274.903L171.818 275.478L170.981 276.013L170.101 276.513L169.179 276.974L168.213 277.395L167.205 277.782L166.154 278.128L165.061 278.436L163.924 278.706L163.924 278.706L162.833 278.911L161.786 279.048L160.782 279.111L159.822 279.106L158.905 279.027L158.033 278.872L157.204 278.646L156.418 278.344L156.418 278.344L155.623 277.927L154.928 277.442L154.333 276.885L153.838 276.257L153.443 275.559L153.148 274.792L152.953 273.956L152.858 273.052L152.858 273.052L152.857 272.157L152.857 270.450L152.855 268.126L152.854 265.456L152.853 262.734L152.851 260.220L152.850 258.100L152.849 256.458L152.849 255.293L152.848 254.536L152.848 254.087L152.848 253.846L152.848 253.729L152.848 253.679L152.848 253.660L152.848 253.653L152.848 253.652L152.848 253.651L152.848 253.651L152.848 253.651L152.848 253.651L152.848 253.651L152.350 253.006L151.907 252.319L151.519 251.588L151.186 250.815L150.908 249.999L150.685 249.142L150.517 248.244L150.403 247.306L150.345 246.328L150.345 246.328L150.367 245.298L150.435 244.299L150.550 243.332L150.711 242.396L150.918 241.492L151.172 240.621L151.473 239.783L151.820 238.979L152.214 238.208L152.654 237.471L152.654 237.471L153.653 237.388L155.461 237.239L157.654 237.061L159.740 236.896L161.349 236.771L162.357 236.694L162.858 236.655L163.047 236.641L163.097 236.637L163.105 236.636L163.105 236.636L164.114 236.645L165.070 236.774L165.973 237.021L166.825 237.386L167.623 237.867L167.623 237.867L167.066 238.893L166.674 239.773L166.446 240.503L166.446 240.503L166.598 241.476L167.145 241.995L167.145 241.995L167.815 241.280L168.507 240.600L169.220 239.955L169.956 239.345L170.713 238.770L171.492 238.230L172.292 237.723L172.292 237.723L173.191 237.258L174.101 236.840L175.023 236.466L175.955 236.137L176.899 235.853L177.854 235.613L178.821 235.416L179.799 235.263L180.788 235.153L181.788 235.085L181.788 235.085L182.886 235.069L183.940 235.106L184.951 235.194L185.920 235.334L186.845 235.525L187.727 235.767L188.566 236.058L188.566 236.058L189.551 236.497L190.444 236.950L191.248 237.418L191.961 237.903L192.584 238.402L193.117 238.918L193.117 238.918L193.778 238.319L194.485 237.759L195.238 237.239L196.036 236.757L196.880 236.315L197.770 235.911L197.770 235.911L198.785 235.547L199.786 235.232L200.771 234.965L201.741 234.746L202.696 234.574L203.636 234.449L204.561 234.370L204.561 234.370L205.732 234.357L206.862 234.384L207.950 234.450L208.997 234.554L210.001 234.698L210.964 234.879L211.885 235.099L212.765 235.357L213.602 235.652L214.398 235.984L215.152 236.355L215.865 236.763L216.536 237.207L216.536 237.207L217.138 237.734L217.700 238.280L218.221 238.844L218.702 239.426L219.143 240.027L219.543 240.647L219.903 241.285L220.222 241.943L220.501 242.620L220.740 243.315L220.938 244.030L221.096 244.764L221.214 245.517L221.291 246.290L221.328 247.082L221.328 247.082L221.310 247.805L221.278 249.095L221.240 250.613L221.206 251.984L221.181 252.959L221.168 253.499L221.163 253.722L221.161 253.785L221.161 253.795ZM268.746 253.000L268.746 253.000L268.771 253.830L268.846 254.596L268.971 255.299L269.146 255.940L269.372 256.518L269.372 256.518L269.786 257.208L270.315 257.819L270.957 258.349L271.713 258.800L271.713 258.800L271.713 258.800L271.795 259.505L271.795 259.505L271.776 260.349L271.701 261.154L271.569 261.918L271.380 262.644L271.134 263.330L270.832 263.977L270.472 264.584L270.056 265.151L269.582 265.678L269.052 266.165L268.465 266.616L268.465 266.616L267.686 267.085L266.876 267.496L266.036 267.852L265.167 268.153L264.267 268.397L263.338 268.587L262.379 268.723L261.390 268.802L260.370 268.829L260.370 268.829L259.318 268.793L258.302 268.703L257.321 268.563L256.377 268.368L255.469 268.121L254.596 267.822L254.596 267.822L253.712 267.418L252.917 266.976L252.210 266.493L251.592 265.969L251.062 265.402L250.621 264.793L250.621 264.793L249.539 264.789L249.036 265.250L249.036 265.250L249.131 265.884L249.461 266.504L250.024 267.110L250.024 267.110L249.436 267.504L248.757 267.852L247.988 268.154L247.128 268.413L246.177 268.626L245.135 268.795L244.003 268.923L242.780 269.006L242.780 269.006L241.608 269.030L240.473 269.023L239.376 268.990L238.315 268.924L237.292 268.830L236.307 268.705L235.358 268.548L234.447 268.362L233.573 268.143L232.736 267.891L231.937 267.610L231.174 267.295L230.450 266.947L229.762 266.566L229.762 266.566L229.085 266.120L228.459 265.646L227.883 265.143L227.358 264.612L226.882 264.055L226.457 263.469L226.082 262.855L225.757 262.212L225.483 261.541L225.258 260.842L225.084 260.115L224.961 259.360L224.887 258.577L224.887 258.577L224.907 257.711L224.972 256.873L225.082 256.064L225.238 255.284L225.440 254.532L225.687 253.810L225.980 253.117L226.318 252.453L226.702 251.819L227.131 251.214L227.606 250.639L228.126 250.095L228.692 249.580L229.303 249.096L229.303 249.096L230.074 248.613L230.870 248.169L231.689 247.759L232.532 247.386L233.399 247.049L234.290 246.748L235.205 246.482L236.143 246.254L237.105 246.060L238.091 245.903L239.101 245.781L240.134 245.695L241.192 245.645L241.192 245.645L242.283 245.636L243.330 245.647L244.332 245.679L245.289 245.729L246.201 245.801L246.201 245.801L247.580 245.981L247.580 245.981L247.580 245.981L247.709 245.247L247.287 244.737L247.287 244.737L246.324 244.569L245.352 244.434L244.370 244.334L243.377 244.267L242.375 244.234L242.375 244.234L241.201 244.262L240.064 244.315L238.964 244.395L237.901 244.500L236.874 244.631L235.885 244.788L234.932 244.970L234.017 245.179L233.138 245.412L232.296 245.671L231.491 245.957L230.723 246.267L230.723 246.267L230.255 245.741L229.838 245.182L229.473 244.588L229.159 243.959L228.897 243.296L228.686 242.597L228.527 241.865L228.419 241.098L228.363 240.296L228.363 240.296L228.385 239.347L228.458 238.506L228.581 237.773L228.756 237.148L228.981 236.631L228.981 236.631L229.758 236.324L230.578 236.031L231.441 235.751L232.345 235.484L233.292 235.231L234.282 234.991L235.313 234.764L236.388 234.551L236.388 234.551L237.379 234.380L238.370 234.226L239.361 234.089L240.352 233.968L241.343 233.865L242.334 233.777L243.324 233.706L244.314 233.651L245.304 233.612L246.294 233.590L246.294 233.590L247.540 233.595L248.751 233.622L249.925 233.671L251.063 233.742L252.165 233.835L253.231 233.950L254.261 234.087L255.255 234.245L256.213 234.426L257.134 234.628L258.020 234.852L258.869 235.097L259.682 235.365L260.460 235.654L261.201 235.964L261.906 236.296L262.575 236.650L263.208 237.026L263.208 237.026L263.898 237.486L264.543 237.972L265.142 238.481L265.695 239.015L266.202 239.573L266.662 240.155L267.077 240.761L267.446 241.391L267.769 242.046L268.046 242.723L268.276 243.425L268.461 244.150L268.600 244.899L268.693 245.672L268.739 246.468L268.739 246.468L268.740 247.171L268.741 248.426L268.743 249.903L268.744 251.236L268.745 252.185L268.745 252.712L268.746 252.929L268.746 252.990L268.746 253.000M246.656 254.469L246.656 254.469L245.612 254.633L245.019 255.091L245.019 255.091L245.107 255.904L245.536 256.449L246.308 256.728L246.308 256.728L247.573 256.677L248.508 256.501L248.508 256.501L249.154 255.974L249.569 255.359L249.753 254.655L249.753 254.655L249.449 254.539L248.524 254.474L246.978 254.465ZM285.643 269.679L285.643 269.679L284.468 269.579L283.352 269.450L282.292 269.286L281.291 269.093L280.347 268.867L279.461 268.606L278.632 268.315L277.861 267.990L277.861 267.990L276.945 267.509L276.160 266.995L275.507 266.444L274.985 265.857L274.594 265.231L274.336 264.568L274.208 263.867L274.208 263.867L274.207 263.161L274.206 261.810L274.205 259.956L274.203 257.802L274.201 255.572L274.199 253.469L274.197 251.647L274.196 250.189L274.195 249.111L274.194 248.376L274.194 247.914L274.194 247.647L274.194 247.507L274.194 247.440L274.194 247.412L274.194 247.401L274.194 247.397L274.194 247.396L274.194 247.396L274.194 247.396L274.194 247.396L274.194 247.396L274.194 247.396L274.194 247.396L273.696 246.829L273.253 246.237L272.865 245.620L272.531 244.978L272.253 244.311L272.030 243.620L271.862 242.903L271.749 242.160L271.691 241.393L271.691 241.393L271.713 240.593L271.781 239.820L271.895 239.075L272.056 238.357L272.264 237.666L272.518 237.003L272.819 236.366L273.166 235.757L273.559 235.174L273.999 234.619L273.999 234.619L274.998 234.596L276.699 234.558L278.489 234.520L279.810 234.492L280.477 234.479L280.681 234.475L280.681 234.475L281.851 234.524L282.937 234.644L283.941 234.832L284.862 235.089L285.701 235.416L286.456 235.812L287.129 236.277L287.719 236.811L287.719 236.811L287.261 237.389L286.813 238.006L286.375 238.662L286.375 238.662L285.837 239.593L285.465 240.332L285.261 240.880L285.261 240.880L285.366 241.705L285.366 241.705L286.165 242.234L286.165 242.234L286.564 241.485L286.996 240.772L287.462 240.097L287.961 239.458L288.494 238.856L289.061 238.290L289.660 237.761L290.293 237.269L290.960 236.814L291.660 236.395L292.394 236.013L292.394 236.013L293.186 235.656L294.016 235.343L294.884 235.073L295.790 234.849L296.734 234.668L297.715 234.532L298.735 234.441L299.792 234.395L300.888 234.395L300.888 234.395L302.074 234.442L303.209 234.525L304.294 234.646L305.328 234.803L306.312 234.999L307.245 235.232L308.128 235.502L308.960 235.811L309.742 236.158L310.473 236.542L310.473 236.542L310.813 237.196L311.113 237.872L311.374 238.572L311.595 239.294L311.778 240.039L311.921 240.807L312.025 241.597L312.090 242.409L312.116 243.242L312.116 243.242L312.096 244.056L312.034 244.849L311.931 245.622L311.787 246.373L311.602 247.104L311.375 247.813L311.107 248.501L310.798 249.167L310.448 249.810L310.448 249.810L309.686 250.185L308.852 250.496L307.947 250.741L306.970 250.924L306.970 250.924L305.873 251.023L304.819 251.095L303.808 251.139L302.838 251.155L301.911 251.145L301.027 251.107L301.027 251.107L299.939 251.029L298.901 250.931L297.913 250.812L296.975 250.673L296.975 250.673L295.654 250.422L294.586 250.205L293.773 250.021L293.773 250.021L293.042 250.439L293.042 250.439L293.331 251.127L293.331 251.127L294.152 251.434L295.076 251.714L296.103 251.972L296.103 251.972L296.126 252.702L296.171 254.099L296.231 256.006L296.302 258.209L296.374 260.472L296.441 262.581L296.498 264.383L296.543 265.799L296.576 266.822L296.597 267.502L296.610 267.916L296.618 268.146L296.621 268.262L296.623 268.314L296.624 268.335L296.624 268.342L296.624 268.344L296.624 268.345L296.624 268.345L296.624 268.345L296.624 268.345L296.624 268.345L296.624 268.345L295.809 268.641L294.969 268.901L294.103 269.128L293.212 269.320L292.295 269.475L291.353 269.600L290.386 269.689L289.393 269.744L288.374 269.768L287.330 269.757L286.261 269.717ZM335.356 261.939L335.356 261.939L334.446 262.154L333.437 262.390L333.437 262.390L333.428 263.149L333.477 263.929L333.584 264.731L333.749 265.555L333.972 266.402L334.254 267.272L334.254 267.272L334.589 268.189L334.949 269.069L335.332 269.912L335.740 270.717L336.171 271.486L336.626 272.219L336.626 272.219L336.013 272.736L335.355 273.196L334.654 273.595L333.908 273.934L333.119 274.215L332.286 274.439L331.409 274.604L330.488 274.712L329.523 274.765L328.514 274.760L327.462 274.703L326.365 274.590L326.365 274.590L325.199 274.380L324.088 274.137L323.032 273.858L322.030 273.547L321.083 273.200L320.191 272.819L319.353 272.404L318.570 271.953L318.570 271.953L317.660 271.279L316.856 270.602L316.159 269.919L315.567 269.228L315.082 268.533L314.703 267.830L314.430 267.117L314.263 266.395L314.203 265.663L314.203 265.663L314.203 264.901L314.203 263.407L314.203 261.251L314.203 258.543L314.203 255.420L314.202 252.033L314.202 248.540L314.202 245.086L314.202 241.800L314.202 238.784L314.202 236.105L314.202 233.804L314.202 231.888L314.202 230.342L314.202 229.133L314.202 228.216L314.202 227.543L314.202 227.064L314.202 226.734L314.202 226.514L314.202 226.372L314.202 226.284L314.202 226.230L314.202 226.200L314.202 226.182L314.202 226.173L314.202 226.168L314.202 226.166L314.202 226.165L314.202 226.164L314.202 226.164L314.202 226.164L314.202 226.164L314.202 226.164L314.202 226.164L314.202 226.164L314.202 226.164L314.202 226.164L314.202 226.164L314.202 226.164L314.202 226.164L314.202 226.164L314.202 226.164L314.202 226.164L314.202 226.164L314.202 226.164L314.202 226.164L314.202 226.164L314.202 226.164L314.202 226.164L314.202 226.164L314.202 226.164L314.997 225.825L315.849 225.509L316.760 225.216L317.729 224.945L318.757 224.697L318.757 224.697L319.783 224.493L320.794 224.325L321.790 224.191L322.771 224.092L323.737 224.029L324.687 224.002L324.687 224.002L325.845 224.022L326.952 224.085L328.006 224.191L329.010 224.339L329.961 224.531L330.861 224.767L331.709 225.046L332.506 225.370L332.506 225.370L333.415 225.896L334.211 226.463L334.894 227.070L335.464 227.718L335.922 228.406L336.266 229.133L336.497 229.898L336.616 230.701L336.616 230.701L336.619 231.520L336.624 232.847L336.629 234.080L336.632 234.787L336.633 234.998L336.633 234.998L336.618 235.818L336.575 236.634L336.503 237.444L336.402 238.250L336.272 239.050L336.113 239.844L335.926 240.632L335.710 241.415L335.464 242.191L335.190 242.960L334.887 243.723L334.887 243.723L334.408 244.404L333.849 245.033L333.849 245.033L333.023 245.755L332.365 246.363L331.874 246.856L331.874 246.856L331.313 247.641L331.313 247.641L331.398 248.500L331.956 249.130L331.956 249.130L332.732 248.622L333.467 248.093L334.159 247.546L334.810 246.977L335.420 246.387L335.987 245.777L336.513 245.147L336.998 244.498L336.998 244.498L337.387 243.868L337.766 243.215L338.134 242.537L338.492 241.835L338.839 241.108L339.175 240.358L339.502 239.583L339.817 238.784L340.122 237.961L340.417 237.113L340.701 236.241L340.701 236.241L341.556 235.773L341.556 235.773L342.449 235.640L343.427 235.514L344.490 235.398L344.490 235.398L345.733 235.289L346.622 235.249L346.622 235.249L347.819 235.322L348.964 235.436L350.059 235.594L351.103 235.793L352.097 236.036L353.039 236.322L353.932 236.651L354.773 237.025L355.564 237.443L356.304 237.905L356.993 238.412L356.993 238.412L357.725 239.062L358.377 239.753L358.952 240.484L359.447 241.255L359.863 242.065L360.201 242.913L360.460 243.800L360.640 244.723L360.741 245.682L360.741 245.682L360.718 246.699L360.639 247.674L360.505 248.607L360.315 249.496L360.070 250.342L359.769 251.143L359.412 251.900L359.000 252.611L358.533 253.279L358.010 253.901L358.010 253.901L357.310 254.505L356.587 255.063L355.841 255.577L355.072 256.046L354.281 256.469L353.467 256.849L352.630 257.186L351.770 257.479L350.887 257.729L349.982 257.937L349.982 257.937L350.681 258.458L351.430 258.963L352.228 259.454L353.075 259.928L353.972 260.385L354.918 260.829L355.913 261.255L356.958 261.667L358.052 262.064L359.195 262.444L359.195 262.444L359.677 263.337L360.106 264.234L360.483 265.134L360.808 266.039L361.080 266.946L361.300 267.855L361.468 268.767L361.583 269.680L361.646 270.593L361.646 270.593L361.617 271.622L361.522 272.590L361.362 273.499L361.138 274.348L360.849 275.135L360.494 275.860L360.075 276.523L359.591 277.123L359.042 277.660L359.042 277.660L358.333 278.141L357.585 278.547L356.800 278.878L355.976 279.137L355.114 279.325L354.214 279.439L353.276 279.483L352.300 279.458L351.285 279.362L350.233 279.202L350.233 279.202L349.135 278.933L348.078 278.620L347.062 278.260L346.086 277.854L345.151 277.404L344.256 276.908L343.402 276.367L342.589 275.783L341.816 275.153L341.084 274.477L340.392 273.759L340.392 273.759L339.820 273.041L339.282 272.309L338.777 271.563L338.305 270.805L337.866 270.033L337.461 269.247L337.089 268.446L336.750 267.630L336.444 266.799L336.172 265.953L335.933 265.092L335.727 264.216L335.554 263.323L335.415 262.414Z" fill="#00ccff" stroke="none" stroke-width="1.6" stroke-linejoin="round" stroke-linecap="round"></path></g></svg>